<?xml version="1.0" encoding="utf-8"?>
<!-- Generator: Adobe Illustrator 18.0.0, SVG Export Plug-In . SVG Version: 6.00 Build 0)  -->
<!DOCTYPE svg PUBLIC "-//W3C//DTD SVG 1.1//EN" "http://www.w3.org/Graphics/SVG/1.1/DTD/svg11.dtd">
<svg version="1.1" id="Layer_1" xmlns="http://www.w3.org/2000/svg" xmlns:xlink="http://www.w3.org/1999/xlink" x="0px" y="0px"
	 viewBox="0 0 411.2 269.7" enable-background="new 0 0 411.2 269.7" xml:space="preserve">
<g>
	<g>
		<g>
			<ellipse fill="none" stroke="#B74004" stroke-width="6" stroke-miterlimit="10" cx="35.1" cy="33.2" rx="23.6" ry="22.8"/>
			<path fill="none" stroke="#B74004" stroke-width="6" stroke-miterlimit="10" d="M44.9,57.6c-5.5-1.1-9.9-0.8-9.9-0.8
				s-8.4,0.1-16.7,1.2c-7.9,1-14.9,3.9-14.9,3.9l15.8,74.4l15.8,74.4l15.8-74.4l13.2-63C62.8,72.4,46.5,58.9,44.9,57.6z"/>
			<line fill="none" stroke="#B74004" stroke-width="6" stroke-miterlimit="10" x1="35.1" y1="10.3" x2="35.1" y2="204.2"/>
			<line fill="none" stroke="#B74004" stroke-width="6" stroke-miterlimit="10" x1="11.5" y1="33.2" x2="60.3" y2="33.2"/>
		</g>
		<circle fill="none" stroke="#B74004" stroke-width="6" stroke-miterlimit="10" cx="39.8" cy="236.2" r="23.6"/>
		<line fill="none" stroke="#B74004" stroke-width="6" stroke-miterlimit="10" x1="35.4" y1="213" x2="44.5" y2="260.1"/>
		<line fill="none" stroke="#B74004" stroke-width="6" stroke-miterlimit="10" x1="17" y1="241" x2="65" y2="231.7"/>
		<g>
			<path fill="none" stroke="#B74004" stroke-width="6" stroke-miterlimit="10" d="M114.6,103.5l7.2-23.8l15.5-43c0,0,2.8,0,5.4,0.8
				c3.8,1.1,7.6,3.1,7.6,3.1s3.4,2,6.1,4.4c2.5,2.3,3.5,5.7,3.5,5.7l-27.6,33.2L114.6,103.5z"/>
			<line fill="none" stroke="#B74004" stroke-width="6" stroke-miterlimit="10" x1="150.9" y1="40.1" x2="116.3" y2="100.3"/>
		</g>
		<g>
			
				<ellipse transform="matrix(0.9793 -0.2024 0.2024 0.9793 -1.3973 33.8415)" fill="none" stroke="#B74004" stroke-width="6" stroke-miterlimit="10" cx="164.8" cy="23.8" rx="21.4" ry="20.7"/>
			<path fill="none" stroke="#B74004" stroke-width="6" stroke-miterlimit="10" d="M197.4,181.5l0.4-69l0.4-69c0,0-5.6-1.1-11.2-1.1
				c-8.3,0-17.6,2.7-17.6,2.7c-1,0.3-6.2,1.6-9.7,3c-0.6,0.4,0.9,1.9-1.2,4.4c-4.8,5.7-11.3,13.5-11.3,13.5l22.5,52.2L197.4,181.5z"
				/>
			<line fill="none" stroke="#B74004" stroke-width="6" stroke-miterlimit="10" x1="160.6" y1="3.5" x2="196.5" y2="177"/>
			<line fill="none" stroke="#B74004" stroke-width="6" stroke-miterlimit="10" x1="143.8" y1="28.1" x2="187.2" y2="19.1"/>
		</g>
		<g>
			<circle fill="none" stroke="#B74004" stroke-width="6" stroke-miterlimit="10" cx="201.7" cy="198.4" r="17.5"/>
			<line fill="none" stroke="#B74004" stroke-width="6" stroke-miterlimit="10" x1="197.4" y1="181.4" x2="206.2" y2="216.2"/>
			<line fill="none" stroke="#B74004" stroke-width="6" stroke-miterlimit="10" x1="184.7" y1="202.7" x2="219.9" y2="193.8"/>
		</g>
		<g>
			<circle fill="none" stroke="#B74004" stroke-width="6" stroke-miterlimit="10" cx="110" cy="108.5" r="9.7"/>
			<line fill="none" stroke="#B74004" stroke-width="6" stroke-miterlimit="10" x1="102.5" y1="102.3" x2="118" y2="114.9"/>
			<line fill="none" stroke="#B74004" stroke-width="6" stroke-miterlimit="10" x1="103.9" y1="116" x2="116.6" y2="100.4"/>
		</g>
		<g>
			<path fill="none" stroke="#B74004" stroke-width="6" stroke-miterlimit="10" d="M102.5,101.8l-12-22.1L66.9,40.5
				c0,0-2.8,0.6-5.1,1.8c-3.5,1.8-6.6,5-6.6,5s-2.5,2.5-4.6,5.3c-2,2.7-4.4,7-4.4,7l35,26.2L102.5,101.8z"/>
			<line fill="none" stroke="#B74004" stroke-width="6" stroke-miterlimit="10" x1="54.3" y1="46.5" x2="99.9" y2="98.9"/>
		</g>
		<line fill="none" stroke="#B74004" stroke-width="6" stroke-miterlimit="10" x1="159.4" y1="46.1" x2="162.6" y2="46.5"/>
		<line fill="none" stroke="#B74004" stroke-width="6" stroke-miterlimit="10" x1="45.8" y1="55.9" x2="46.4" y2="55.2"/>
		<g>
			<g>
				<circle fill="none" stroke="#B74004" stroke-width="6" stroke-miterlimit="10" cx="267.8" cy="39.6" r="23.6"/>
				<path fill="none" stroke="#B74004" stroke-width="6" stroke-miterlimit="10" d="M239.7,221l27.4-73.6l27.4-73.6
					c0,0-5.3-3.4-11.2-5.6c-8.6-3.2-19.2-4.6-19.2-4.6s-8.3-1.1-16.7-1.3c-8-0.2-15.4,1.7-15.4,1.7l3.8,78.4L239.7,221z"/>
				<line fill="none" stroke="#B74004" stroke-width="6" stroke-miterlimit="10" x1="271.5" y1="16.3" x2="240.8" y2="214.3"/>
				<line fill="none" stroke="#B74004" stroke-width="6" stroke-miterlimit="10" x1="244.5" y1="36" x2="292.8" y2="43.5"/>
			</g>
			<g>
				
					<ellipse transform="matrix(0.1255 -0.9921 0.9921 0.1255 -29.2478 444.662)" fill="none" stroke="#B74004" stroke-width="6" stroke-miterlimit="10" cx="237.6" cy="238.9" rx="17.4" ry="17.3"/>
				<line fill="none" stroke="#B74004" stroke-width="6" stroke-miterlimit="10" x1="220.5" y1="236.8" x2="254.8" y2="241.1"/>
				<line fill="none" stroke="#B74004" stroke-width="6" stroke-miterlimit="10" x1="235.4" y1="256.2" x2="239.9" y2="220.4"/>
			</g>
			<g>
				
					<ellipse transform="matrix(-7.419562e-03 1 -1 -7.419562e-03 635.8821 -146.7458)" fill="none" stroke="#B74004" stroke-width="6" stroke-miterlimit="10" cx="390.8" cy="242.2" rx="18" ry="17.5"/>
				<path fill="none" stroke="#B74004" stroke-width="6" stroke-miterlimit="10" d="M255.1,241.2l56.8,12.5l56.8,12.5
					c0,0,1.9-4.4,2.9-9.1c1.4-6.8,1.3-15.1,1.3-15.1s-0.1-6.4-0.8-12.8c-0.7-6.1-2.9-11.4-2.9-11.4L312,229.6L255.1,241.2z"/>
				<line fill="none" stroke="#B74004" stroke-width="6" stroke-miterlimit="10" x1="408.2" y1="242.3" x2="260.1" y2="241.2"/>
				<line fill="none" stroke="#B74004" stroke-width="6" stroke-miterlimit="10" x1="390.9" y1="224.2" x2="390.6" y2="261.5"/>
			</g>
		</g>
	</g>
</g>
<g>
</g>
<g>
</g>
<g>
</g>
<g>
</g>
<g>
</g>
<g>
</g>
</svg>
