<?xml version="1.0" encoding="utf-8"?>
<!-- Generator: Adobe Illustrator 18.0.0, SVG Export Plug-In . SVG Version: 6.00 Build 0)  -->
<!DOCTYPE svg PUBLIC "-//W3C//DTD SVG 1.1//EN" "http://www.w3.org/Graphics/SVG/1.1/DTD/svg11.dtd">
<svg version="1.1" id="Layer_1" xmlns="http://www.w3.org/2000/svg" xmlns:xlink="http://www.w3.org/1999/xlink" x="0px" y="0px"
	 viewBox="0 0 643.1 165.9" enable-background="new 0 0 643.1 165.9" xml:space="preserve">
<g>
	<g>
		<g>
			<ellipse fill="none" stroke="#FCC21D" stroke-width="2.8447" stroke-miterlimit="10" cx="21.2" cy="20.1" rx="14.6" ry="14.1"/>
			<path fill="none" stroke="#FCC21D" stroke-width="2.8447" stroke-miterlimit="10" d="M27.3,35.2c-3.4-0.7-6.1-0.5-6.1-0.5
				s-5.2,0.1-10.3,0.7c-4.9,0.6-9.2,2.4-9.2,2.4l9.8,46l9.8,46l9.8-46l8.2-39C38.4,44.4,28.3,36,27.3,35.2z"/>
			<line fill="none" stroke="#FCC21D" stroke-width="2.8447" stroke-miterlimit="10" x1="21.2" y1="6" x2="21.2" y2="125.9"/>
			<line fill="none" stroke="#FCC21D" stroke-width="2.8447" stroke-miterlimit="10" x1="6.6" y1="20.1" x2="36.8" y2="20.1"/>
		</g>
		<circle fill="none" stroke="#FCC21D" stroke-width="2.8447" stroke-miterlimit="10" cx="24.2" cy="145.7" r="14.6"/>
		<line fill="none" stroke="#FCC21D" stroke-width="2.8447" stroke-miterlimit="10" x1="21.4" y1="131.4" x2="27" y2="160.5"/>
		<line fill="none" stroke="#FCC21D" stroke-width="2.8447" stroke-miterlimit="10" x1="10" y1="148.7" x2="39.7" y2="143"/>
		<g>
			<path fill="none" stroke="#FCC21D" stroke-width="2.8447" stroke-miterlimit="10" d="M70.4,63.6l4.5-14.7l9.6-26.6
				c0,0,1.8,0,3.3,0.5c2.3,0.7,4.7,1.9,4.7,1.9s2.1,1.2,3.8,2.7c1.5,1.4,2.1,3.6,2.1,3.6L81.3,51.5L70.4,63.6z"/>
			<line fill="none" stroke="#FCC21D" stroke-width="2.8447" stroke-miterlimit="10" x1="92.9" y1="24.4" x2="71.5" y2="61.6"/>
		</g>
		<g>
			
				<ellipse transform="matrix(0.9793 -0.2024 0.2024 0.9793 -0.7871 20.8319)" fill="none" stroke="#FCC21D" stroke-width="2.8447" stroke-miterlimit="10" cx="101.5" cy="14.3" rx="13.3" ry="12.8"/>
			<path fill="none" stroke="#FCC21D" stroke-width="2.8447" stroke-miterlimit="10" d="M121.6,111.9l0.2-42.7l0.2-42.7
				c0,0-3.5-0.7-7-0.7c-5.1,0-10.9,1.7-10.9,1.7c-0.6,0.2-3.8,1-6,1.9c-0.4,0.2,0.6,1.2-0.7,2.7c-2.9,3.5-7,8.4-7,8.4l13.9,32.3
				L121.6,111.9z"/>
			<line fill="none" stroke="#FCC21D" stroke-width="2.8447" stroke-miterlimit="10" x1="98.9" y1="1.7" x2="121.1" y2="109.1"/>
			<line fill="none" stroke="#FCC21D" stroke-width="2.8447" stroke-miterlimit="10" x1="88.5" y1="16.9" x2="115.4" y2="11.4"/>
		</g>
		<g>
			<circle fill="none" stroke="#FCC21D" stroke-width="2.8447" stroke-miterlimit="10" cx="124.3" cy="122.3" r="10.8"/>
			<line fill="none" stroke="#FCC21D" stroke-width="2.8447" stroke-miterlimit="10" x1="121.7" y1="111.8" x2="127.1" y2="133.4"/>
			<line fill="none" stroke="#FCC21D" stroke-width="2.8447" stroke-miterlimit="10" x1="113.8" y1="125" x2="135.6" y2="119.5"/>
		</g>
		<g>
			<circle fill="none" stroke="#FCC21D" stroke-width="2.8447" stroke-miterlimit="10" cx="67.6" cy="66.7" r="6"/>
			<line fill="none" stroke="#FCC21D" stroke-width="2.8447" stroke-miterlimit="10" x1="62.9" y1="62.9" x2="72.5" y2="70.7"/>
			<line fill="none" stroke="#FCC21D" stroke-width="2.8447" stroke-miterlimit="10" x1="63.8" y1="71.4" x2="71.7" y2="61.7"/>
		</g>
		<g>
			<path fill="none" stroke="#FCC21D" stroke-width="2.8447" stroke-miterlimit="10" d="M62.9,62.6l-7.4-13.7L40.9,24.6
				c0,0-1.7,0.4-3.2,1.1c-2.2,1.1-4.1,3.1-4.1,3.1s-1.6,1.5-2.9,3.3c-1.2,1.7-2.7,4.3-2.7,4.3l21.6,16.2L62.9,62.6z"/>
			<line fill="none" stroke="#FCC21D" stroke-width="2.8447" stroke-miterlimit="10" x1="33.1" y1="28.4" x2="61.3" y2="60.8"/>
		</g>
		<line fill="none" stroke="#FCC21D" stroke-width="2.8447" stroke-miterlimit="10" x1="98.1" y1="28.1" x2="100.1" y2="28.3"/>
		<line fill="none" stroke="#FCC21D" stroke-width="2.8447" stroke-miterlimit="10" x1="27.8" y1="34.2" x2="28.2" y2="33.7"/>
		<g>
			<g>
				<circle fill="none" stroke="#FCC21D" stroke-width="2.8447" stroke-miterlimit="10" cx="165.2" cy="24.1" r="14.6"/>
				<path fill="none" stroke="#FCC21D" stroke-width="2.8447" stroke-miterlimit="10" d="M147.8,136.3l17-45.5l17-45.5
					c0,0-3.3-2.1-6.9-3.4c-5.3-2-11.9-2.8-11.9-2.8s-5.1-0.7-10.3-0.8c-4.9-0.1-9.5,1.1-9.5,1.1l2.4,48.5L147.8,136.3z"/>
				<line fill="none" stroke="#FCC21D" stroke-width="2.8447" stroke-miterlimit="10" x1="167.5" y1="9.6" x2="148.5" y2="132.2"/>
				<line fill="none" stroke="#FCC21D" stroke-width="2.8447" stroke-miterlimit="10" x1="150.8" y1="21.8" x2="180.7" y2="26.5"/>
			</g>
			<g>
				
					<ellipse transform="matrix(0.1255 -0.9921 0.9921 0.1255 -18.1054 274.2932)" fill="none" stroke="#FCC21D" stroke-width="2.8447" stroke-miterlimit="10" cx="146.5" cy="147.4" rx="10.8" ry="10.7"/>
				
					<line fill="none" stroke="#FCC21D" stroke-width="2.8447" stroke-miterlimit="10" x1="135.9" y1="146.1" x2="157.1" y2="148.8"/>
				<line fill="none" stroke="#FCC21D" stroke-width="2.8447" stroke-miterlimit="10" x1="145.2" y1="158.1" x2="148" y2="136"/>
			</g>
			<g>
				
					<ellipse transform="matrix(-7.419562e-03 1 -1 -7.419562e-03 392.563 -90.748)" fill="none" stroke="#FCC21D" stroke-width="2.8447" stroke-miterlimit="10" cx="241.3" cy="149.5" rx="11.2" ry="10.8"/>
				<path fill="none" stroke="#FCC21D" stroke-width="2.8447" stroke-miterlimit="10" d="M157.4,148.8l35.1,7.7l35.1,7.7
					c0,0,1.2-2.7,1.8-5.6c0.9-4.2,0.8-9.3,0.8-9.3s0-4-0.5-7.9c-0.5-3.8-1.8-7.1-1.8-7.1l-35.2,7.2L157.4,148.8z"/>
				
					<line fill="none" stroke="#FCC21D" stroke-width="2.8447" stroke-miterlimit="10" x1="252.1" y1="149.5" x2="160.5" y2="148.9"/>
				
					<line fill="none" stroke="#FCC21D" stroke-width="2.8447" stroke-miterlimit="10" x1="241.4" y1="138.3" x2="241.2" y2="161.4"/>
			</g>
		</g>
	</g>
</g>
<g>
	<g>
		<path fill="#F27024" d="M217.7,99.1c-0.3,0.8-0.6,1.4-0.9,1.8c-0.3,0.4-0.6,0.6-0.9,0.7c-0.3,0.1-0.6,0.1-0.9-0.1
			c-0.5-0.4-0.9-1-1.1-1.6c-0.2-0.6-0.3-1.2-0.3-1.9c0-1.2,0-2.4-0.1-3.6c0-1.2,0-2.4,0-3.6c0-1.1,0-2.2,0-3.3
			c0-1.1,0.1-2.1,0.1-3.3c0-0.6,0-1.1,0-1.7c0-0.6,0-1.1,0.1-1.7c0.1-0.8,0.1-1.6,0.1-2.4c0-0.8,0.1-1.6,0.1-2.5c0-0.8,0-1.5,0-2.3
			c0-0.8,0-1.5,0-2.3c0-0.7,0.1-1.5,0.1-2.2c0-0.7,0.1-1.5,0.1-2.2c0.1-1.4,0.1-2.7,0.1-4.1c0-1.4,0.1-2.7,0.2-4.1
			c0.1-0.7,0.1-1.5,0.2-2.2c0.1-0.7,0.2-1.4,0.2-2.2c0.1-0.7,0.1-1.4-0.1-2.1c-0.1-0.2,0-0.3,0.1-0.5c0.1-0.2,0.2-0.3,0.4-0.5
			c0.4-0.5,0.8-0.8,1.3-0.8c0.5-0.1,1,0,1.5,0.3c0.1,0.1,0.2,0.1,0.3,0.2c0.1,0.1,0.2,0.1,0.3,0.1c0.3,0.1,0.5,0.3,0.6,0.6
			c0.1,0.1,0.1,0.2,0.2,0.3c0.1,0.1,0.2,0.2,0.3,0.3c0.4,0.5,0.9,1,1.3,1.5c0.4,0.5,0.9,1,1.3,1.4c0.4,0.4,0.8,0.8,1.3,1.2
			c0.4,0.4,0.9,0.7,1.3,1.1c0.6,0.5,1.1,1,1.7,1.6s1.1,1,1.6,1.6c0.5,0.5,1,1,1.5,1.6s1,1,1.5,1.6c0.4,0.4,0.8,0.9,1.2,1.4
			c0.4,0.5,0.8,1,1.1,1.4c0.1,0.2,0.3,0.3,0.4,0.5c0.2,0.1,0.3,0.3,0.5,0.5c0.2,0.2,0.4,0.5,0.7,0.7c0.2,0.3,0.5,0.5,0.7,0.8
			c0.1,0.1,0.2,0.2,0.4,0.3c0.3-0.5,0.7-1,1-1.5c0.3-0.5,0.7-1,1-1.5c0.4-0.6,0.9-1.1,1.3-1.7c0.4-0.6,0.9-1.1,1.3-1.7
			c0.4-0.5,0.8-0.9,1.1-1.4c0.4-0.5,0.7-1,1.1-1.5c0.4-0.4,0.7-0.9,1-1.4c0.3-0.5,0.6-0.9,1-1.4c0.2-0.2,0.4-0.5,0.6-0.7
			c0.2-0.2,0.4-0.5,0.6-0.7c0,0,0-0.1,0-0.1c0,0,0-0.1,0-0.1c0.1-0.1,0.1-0.1,0.1-0.2c0-0.1,0-0.1,0.1-0.2c0.4-0.4,0.8-0.8,1.1-1.4
			c0.3-0.5,0.6-1,1.1-1.4c0.2-0.3,0.5-0.5,0.7-0.7c0.2-0.2,0.5-0.5,0.7-0.7c0.1-0.1,0.2-0.3,0.4-0.4c0.1-0.1,0.2-0.3,0.4-0.4
			c0.1-0.1,0.2-0.2,0.3-0.3c0.1-0.1,0.2-0.2,0.3-0.3c0.2-0.2,0.5-0.4,0.7-0.6c0.2-0.2,0.5-0.3,0.8-0.5c0.7-0.3,1.4-0.1,1.9,0.6
			c0.4,0.6,0.7,1.2,0.9,1.9c0.1,0.7,0.3,1.3,0.4,2c0.1,0.6,0.1,1.1,0.2,1.7c0,0.6,0,1.1,0,1.7c-0.1,1.1-0.1,2.2-0.2,3.3
			c-0.1,1.1-0.1,2.2-0.2,3.3c-0.1,0.8-0.1,1.5-0.2,2.2c-0.1,0.7-0.1,1.5-0.2,2.2c-0.1,0.8-0.1,1.7-0.1,2.6c0,0.9-0.1,1.7-0.1,2.6
			c0,0.4,0,0.7-0.1,1.1c0,0.3-0.1,0.7-0.1,1.1c0,0.3,0,0.6,0,0.9c0,0.3,0,0.6,0,0.9c0,0.5,0,1,0,1.5c0,0.5,0,1,0,1.5
			c0,0.4,0.1,0.9,0.1,1.3c0,0.4,0,0.9,0,1.3v5.2c0,0.6,0,1.2,0,1.8c0,0.6,0,1.2,0,1.8v3.3c0,0.3,0,0.6,0,1c0,0.3,0,0.7,0,1
			c0,0.7-0.1,1.3-0.3,2c-0.1,0.6-0.4,1.2-0.9,1.7c-0.4,0.4-0.8,0.7-1.2,0.8c-0.4,0.1-0.9,0.2-1.4,0.3c-0.4,0.1-0.7,0-1,0
			c-0.3-0.1-0.6-0.2-1-0.3c-0.2,0-0.4-0.1-0.6-0.1c-0.3-0.3-0.6-0.7-0.7-1.2c-0.1-0.5-0.2-0.9-0.4-1.4c-0.1-0.3-0.2-0.6-0.3-0.9
			c-0.1-0.3-0.1-0.6-0.2-0.9c-0.1-0.4-0.1-0.7,0-1.1c0-0.3,0-0.7,0-1.1v-2.6c0-0.4,0-0.7,0-1.1c0-0.4,0-0.8,0-1.1c0-0.5,0-1,0-1.5
			c0-0.5,0-1,0-1.5c0.1-1,0.1-1.9,0.1-2.9c0-1,0.1-1.9,0.1-2.9c0.1-0.8,0.1-1.6,0.1-2.4c0-0.8,0.1-1.6,0.1-2.4
			c0.1-0.8,0.1-1.5,0.1-2.3c0-0.8,0-1.6,0-2.4c0-1.4,0.1-2.8,0.2-4.3c0.1-0.6,0.1-1.1,0.2-1.7c0.1-0.6,0.2-1.2,0.2-1.8
			c-0.1,0.1-0.2,0.2-0.4,0.4c-0.1,0.1-0.2,0.2-0.3,0.4c-0.6,0.7-1.2,1.3-1.7,2c-0.6,0.7-1.1,1.3-1.7,2c-0.4,0.4-0.7,0.8-1,1.3
			c-0.5,0.6-0.9,1.2-1.4,1.9s-1,1.2-1.5,1.9c-0.2,0.3-0.5,0.5-0.7,0.7c-0.3,0.2-0.5,0.4-0.8,0.6c-0.2,0.1-0.3,0.3-0.5,0.4
			c-0.2,0.2-0.3,0.3-0.4,0.4c-0.2,0.2-0.4,0.4-0.6,0.5c-0.2,0.1-0.5,0.1-0.8,0c-0.1-0.1-0.3-0.1-0.4,0s-0.2,0-0.4,0
			c-0.3-0.1-0.5-0.3-0.7-0.4c-0.2-0.1-0.5-0.3-0.7-0.5c-0.2-0.1-0.3-0.3-0.5-0.5c-0.1-0.2-0.3-0.4-0.5-0.5c-0.3-0.2-0.5-0.4-0.6-0.6
			c-0.1-0.2-0.3-0.5-0.5-0.7c-0.2-0.2-0.4-0.4-0.6-0.6c-0.2-0.2-0.4-0.4-0.6-0.6c-0.7-0.7-1.3-1.5-2-2.2c-0.6-0.7-1.3-1.5-2-2.2
			c-0.5-0.6-1.1-1.2-1.6-1.7c-0.5-0.6-1.1-1.2-1.6-1.7c-0.5-0.6-1.1-1.1-1.6-1.6c-0.6-0.5-1.1-1.1-1.7-1.6c-0.1-0.1-0.1-0.1-0.2-0.2
			c-0.1-0.1-0.2-0.1-0.3-0.2c0,0.2,0,0.4,0,0.6c0,0.2,0,0.3,0.1,0.5c0.1,1.2,0.2,2.4,0.3,3.5c0,1.2,0,2.4,0,3.6c0,0.6,0,1.1,0,1.7
			c0,0.6,0,1.1,0,1.7c-0.1,0.8-0.1,1.7-0.1,2.5c0,0.8-0.1,1.7-0.1,2.5c-0.1,0.7-0.1,1.4-0.2,2.1s-0.1,1.4-0.2,2.1l-0.6,6.2
			c-0.1,0.9-0.2,1.8-0.2,2.6c-0.1,0.9-0.2,1.7-0.3,2.6c-0.1,0.6-0.1,1.2-0.2,1.8c-0.1,0.6-0.2,1.1-0.3,1.7
			C218.4,96.6,218.1,97.9,217.7,99.1z"/>
		<path fill="#F27024" d="M284.9,101.5c-0.3,0-0.6,0-0.9-0.1c-0.2-0.1-0.5-0.2-0.8-0.3c-0.3-0.2-0.5-0.4-0.8-0.7
			c-0.8-1.1-1.4-2.3-1.8-3.6c-0.4-1.3-0.8-2.6-1.1-3.9c-0.2-0.8-0.3-1.6-0.5-2.4c-0.1-0.8-0.2-1.6-0.3-2.5c-0.1-1.3-0.3-2.5-0.4-3.7
			c-0.1-1.2-0.3-2.5-0.4-3.7c0-0.3,0-0.7-0.1-1c0-0.3,0-0.7-0.1-1.1c-0.2,0.3-0.4,0.6-0.6,0.8c-0.2,0.3-0.3,0.5-0.4,0.8
			c-0.5,1.3-1,2.5-1.6,3.7c-0.6,1.2-1.2,2.4-1.9,3.6c-0.3,0.5-0.5,1-0.7,1.5c-0.2,0.5-0.5,1-0.7,1.5c-0.2,0.4-0.4,0.7-0.7,1
			c-0.2,0.3-0.5,0.7-0.7,1c-0.6,0.7-1.2,1.4-1.8,2s-1.4,1.1-2.2,1.5c-1.3,0.7-2.7,1-4.2,0.8c-0.7-0.1-1.3-0.3-1.8-0.6
			c-0.5-0.4-1-0.8-1.4-1.4c-0.4-0.6-0.7-1.1-0.9-1.8c-0.2-0.6-0.3-1.3-0.4-2c-0.2-1.3-0.2-2.5-0.1-3.8c0.1-1.2,0.3-2.5,0.6-3.8
			c0.2-0.9,0.4-1.8,0.7-2.7c0.2-0.9,0.6-1.7,1-2.6c1-2,2.4-3.7,4-5.3c1-0.9,2-1.8,3.1-2.6c1.1-0.8,2.2-1.5,3.5-2.1
			c1.3-0.6,2.5-1.1,3.8-1.5c1.3-0.4,2.6-0.7,3.9-0.9c0.1,0,0.1,0,0.2,0c0.1,0,0.1,0,0.2,0c0.2-0.7,0.4-1.3,0.6-1.9
			c0.2-0.6,0.4-1.2,0.6-1.8c0.1-0.3,0.2-0.5,0.5-0.6c0.2-0.1,0.6-0.2,0.9-0.1c0.7,0.1,1.1,0.3,1.5,0.8c0.3,0.5,0.5,1,0.6,1.4
			c0.1,0.6,0.2,1.2,0.1,1.9c0,0.6-0.1,1.2-0.1,1.9c-0.1,1.6-0.1,3.1-0.2,4.6c-0.1,1.5,0,3.1,0.1,4.6c0.2,1.9,0.4,3.9,0.7,5.7
			c0.3,1.9,0.7,3.8,1.1,5.7c0.2,1.1,0.5,2.3,0.8,3.4c0.3,1.1,0.6,2.2,0.9,3.3c0.2,0.6,0.3,1.2,0.5,1.9c0.2,0.6,0.4,1.2,0.6,1.9
			c0,0.1,0.1,0.3,0.1,0.6c0.1,0.4,0,0.7-0.1,0.9c-0.1,0.2-0.3,0.5-0.6,0.7c-0.2,0.2-0.4,0.4-0.7,0.5s-0.5,0.2-0.7,0.3
			C285.5,101.4,285.2,101.5,284.9,101.5z M265.9,91.8h0.2c0.2-0.1,0.3-0.1,0.4-0.2c1.5-0.9,2.6-2.1,3.4-3.6c0.2-0.4,0.5-0.9,0.7-1.3
			c0.2-0.4,0.4-0.9,0.7-1.3c0.4-0.8,0.9-1.7,1.4-2.4c0.5-0.8,0.9-1.6,1.2-2.6c0.3-0.7,0.6-1.4,0.9-2.1c0.3-0.7,0.7-1.4,0.9-2.1
			c0.4-0.9,0.7-1.8,1.1-2.7c0.4-0.9,0.7-1.8,0.9-2.7c0.1-0.3,0.1-0.6,0.2-0.9c0.1-0.3,0-0.6,0-0.9c-0.3,0.1-0.6,0.1-0.8,0.2
			c-0.2,0.1-0.5,0.2-0.7,0.3c-0.9,0.5-1.9,1-2.8,1.5c-0.9,0.5-1.8,1.1-2.6,1.7c-0.7,0.5-1.3,1.1-1.9,1.6c-0.6,0.6-1.1,1.2-1.5,2
			c-0.2,0.3-0.3,0.7-0.5,1c-0.2,0.3-0.3,0.7-0.5,1c-0.2,0.6-0.4,1.1-0.6,1.7c-0.2,0.6-0.4,1.1-0.5,1.7c-0.1,0.5-0.2,1-0.3,1.5
			c-0.1,0.5-0.1,1-0.2,1.6c-0.1,0.9-0.2,1.7-0.1,2.6s0.1,1.7,0.3,2.6c0.1,0.3,0.1,0.6,0.2,0.9C265.6,91.3,265.7,91.6,265.9,91.8z"/>
		<path fill="#F27024" d="M312.9,66.7c0.2,1.1,0.3,2.1,0.4,3.2c0.1,1.1,0.1,2.1,0.1,3.2c0,0.2,0,0.5,0,0.7c0,0.2-0.1,0.5-0.1,0.7
			l-0.2,2.2c-0.3,0.1-0.5,0.2-0.7,0.1c-0.2,0-0.3-0.2-0.5-0.5c-0.7-0.9-1.2-1.9-1.3-3c-0.1-0.8-0.2-1.5-0.2-2.3
			c0-0.8-0.1-1.6-0.2-2.3c-0.1-0.6-0.2-1.1-0.3-1.7c-0.1-0.6-0.3-1.1-0.4-1.7c-0.1-0.2-0.1-0.4-0.2-0.5c-0.1-0.2-0.2-0.4-0.3-0.6
			c-0.3,0.2-0.5,0.4-0.8,0.6c-0.3,0.2-0.5,0.4-0.7,0.6c-0.9,0.9-1.8,1.8-2.6,2.8s-1.6,2-2.2,3.1c-0.6,1-1.2,2.1-1.6,3.2
			c-0.5,1.1-0.8,2.2-1.1,3.4c-0.1,0.1-0.1,0.3-0.1,0.5c0,0.2,0,0.3,0,0.5c0.1,0.7,0.2,1.4,0.3,2c0.1,0.7,0.2,1.3,0.3,2
			c0.2,0.8,0.3,1.7,0.4,2.6c0.1,0.9,0.2,1.7,0.3,2.6c0.1,0.3,0.1,0.5,0.1,0.7c0,0.2,0.1,0.5,0.1,0.7c0.1,0.6,0.1,1.1,0.2,1.7
			c0.1,0.6,0.1,1.1,0.2,1.6c0.1,0.5,0.2,1.1,0.2,1.6c0.1,0.6,0.2,1.1,0.2,1.6c0.1,0.2,0.1,0.5,0.2,0.7c0.1,0.2,0.1,0.5,0.2,0.7
			c0.1,0.2,0.1,0.4,0,0.6c0,0.2-0.1,0.4-0.1,0.6c0,0.3-0.1,0.7-0.1,1c-0.1,0.3-0.2,0.6-0.4,0.9l-0.2,0.2c-0.2,0.2-0.5,0.3-0.8,0.3
			c-0.3,0.1-0.6,0.2-1.1,0.4c-0.4,0.1-0.9,0.2-1.4,0.2c-0.5,0-0.9-0.1-1.3-0.2c-0.4-0.1-0.6-0.4-0.8-0.8c-0.3-1.1-0.7-2.4-1-4.1
			c-0.3-1.7-0.7-3.5-1-5.5c-0.3-2-0.6-4.1-0.9-6.2c-0.3-2.2-0.6-4.3-0.8-6.4c-0.2-2.1-0.5-4.1-0.7-6.1c-0.2-1.9-0.4-3.6-0.5-5.1
			c-0.1-1.5-0.2-2.7-0.3-3.5c-0.1-0.9-0.1-1.4-0.1-1.4c0-0.1,0.1-0.2,0.4-0.3c0.2-0.1,0.5-0.2,0.7-0.3c0.3-0.1,0.6-0.2,0.8-0.2
			c0.3-0.1,0.5-0.1,0.7-0.2c0,0,0.1,0,0.2,0c0,0,0,0,0,0v0c0.2-0.1,0.3-0.1,0.5-0.1s0.3,0,0.4,0c0.3,0,0.5,0.1,0.6,0.3
			c0.1,0.2,0.2,0.4,0.4,0.6c0.5,0.8,1,1.7,1.3,2.7c0.3,1,0.6,1.9,0.9,2.9c0.2,0.7,0.3,1.4,0.5,2.1c0.1,0.7,0.2,1.4,0.4,2.1
			c0,0.1,0,0.1,0,0.1c0,0,0,0.1,0.1,0.3c0.1-0.2,0.2-0.4,0.3-0.6c0.1-0.2,0.1-0.3,0.2-0.4c0.5-1.2,1.2-2.4,2-3.5
			c0.7-0.9,1.4-1.8,2.1-2.6c0.7-0.9,1.5-1.7,2.4-2.4c0.2-0.2,0.4-0.3,0.6-0.5c0.2-0.1,0.4-0.3,0.6-0.5c0.5-0.4,1-0.6,1.5-0.7
			c0.5-0.1,1.1-0.1,1.7-0.1c0.2,0,0.4,0.1,0.6,0.3s0.3,0.3,0.4,0.5c0.6,0.7,1,1.5,1.2,2.3C312.6,65,312.8,65.8,312.9,66.7z"/>
		<path fill="#F27024" d="M322.8,95.7c0.1,0.7,0.1,1.3,0.2,1.9c0.1,0.5,0.1,1,0.1,1.5c0,0.5,0,0.8,0,1c-0.1,0.5-0.3,0.9-0.6,1.1
			c-0.3,0.3-0.7,0.4-1.2,0.3c-0.8-0.1-1.4-0.4-1.8-0.8c-0.4-0.5-0.8-1-1.1-1.6c-0.2-0.4-0.4-0.8-0.4-1.1c-0.1-0.3-0.2-0.7-0.2-1
			c-0.1-0.3-0.1-0.6-0.2-1c-0.1-1.4-0.3-2.8-0.4-4.1c-0.1-1.4-0.3-2.7-0.4-4.1c-0.1-1.2-0.2-2.5-0.3-3.7c-0.1-1.2-0.1-2.4-0.1-3.7
			c0-0.7,0-1.4,0-2.1s0-1.4,0-2.1c0-0.4,0-0.9,0.1-1.3c0-0.4,0-0.9,0.1-1.3c0-0.4,0-0.9,0-1.3c0-0.4,0-0.9,0-1.3
			c0-0.5,0.1-1.1,0.2-1.6c0.2-0.6,0.5-1.1,1.1-1.4c0.6-0.3,1.2-0.3,1.8,0c0.2,0.1,0.4,0.2,0.5,0.4c0.1,0.2,0.3,0.3,0.4,0.5
			c0.2,0.4,0.4,0.7,0.5,1.1c0.1,0.4,0.2,0.8,0.3,1.2c0.2,1,0.4,2,0.5,3c0.1,1,0.1,2,0.1,3c0,0.7,0,1.3,0,2c0,0.6,0,1.3,0,2h0
			c0.1,0.8,0.1,1.6,0.1,2.3c0,0.8,0,1.6,0.1,2.3l0.6,8.3c0,0.3,0,0.6,0,0.8S322.8,95.4,322.8,95.7z M319.7,64.9
			c-0.2,0.1-0.3,0.1-0.6,0.2c-0.2,0-0.4,0-0.6-0.1c-0.2-0.1-0.4-0.2-0.6-0.4c-0.2-0.2-0.3-0.6-0.4-1c-0.1-0.4-0.1-0.8,0.1-1.1
			c0.1-0.3,0.3-0.6,0.5-0.8c0.2-0.2,0.5-0.4,0.8-0.6c0.1-0.1,0.3,0,0.5,0.1c0.3,0.1,0.6,0.2,0.8,0.4c0.3,0.1,0.6,0.4,0.8,0.9
			c0.2,0.5,0.4,0.9,0.4,1.3c0,0.2-0.1,0.3-0.2,0.5c-0.1,0.1-0.3,0.2-0.5,0.3c-0.2,0.1-0.4,0.2-0.6,0.3
			C320.1,64.7,319.9,64.8,319.7,64.9z"/>
		<path fill="#F27024" d="M327.7,84.5c0.6,0.6,1.2,1.2,1.7,1.8c0.5,0.6,0.8,1.3,1,2.2c0.1,0.8,0.3,1.5,0.5,2.2
			c0.2,0.7,0.5,1.4,1,2.1c0.3,0.4,0.6,0.7,0.9,1s0.7,0.6,1,0.9c0.3,0.2,0.7,0.4,1,0.5c0.4,0.1,0.7,0.1,1.1,0.1
			c0.3-0.1,0.6-0.2,0.8-0.3c0.3-0.3,0.6-0.6,0.9-0.9c0.3-0.3,0.5-0.7,0.6-1.2c0.4-1.2,0.6-2.5,0.6-3.7c0.1-1.2-0.1-2.5-0.5-3.7
			c-0.2-0.8-0.5-1.5-0.9-2.2c-0.4-0.7-0.8-1.4-1.2-2c-0.5-0.7-1-1.5-1.6-2.2c-0.5-0.7-1-1.4-1.4-2.2c-0.6-0.9-1.1-1.9-1.5-2.8
			s-0.8-1.9-1.1-3c-0.2-0.8-0.2-1.6-0.2-2.4s0.2-1.6,0.5-2.4c0.3-0.8,0.7-1.5,1.1-2.1c0.5-0.7,1.1-1.2,1.8-1.7
			c0.2-0.1,0.4-0.3,0.6-0.4c0.2-0.1,0.4-0.3,0.6-0.4c0.6-0.4,1.3-0.6,2-0.7c0.7-0.1,1.4-0.1,2.1,0.1c0.7,0.1,1.3,0.4,1.9,0.7
			c0.6,0.3,1.1,0.7,1.6,1.1c0.9,0.9,1.8,1.9,2.6,3c0.3,0.4,0.5,0.8,0.7,1.2c0.2,0.4,0.4,0.9,0.6,1.3c0.1,0.3,0.2,0.6,0.4,0.8
			c0.1,0.3,0.2,0.5,0.4,0.8c0.2,0.4,0.1,0.7-0.2,1.1c-0.1,0.1-0.2,0.2-0.3,0.3c-0.1,0.1-0.3,0.1-0.4,0c-0.4,0-0.6-0.2-0.6-0.6
			c-0.1-0.2-0.1-0.5-0.1-0.7s-0.1-0.5-0.2-0.7c-0.3-0.8-0.8-1.6-1.3-2.3c-0.5-0.7-1.2-1.3-1.9-1.8c-0.3-0.2-0.7-0.4-1.1-0.5
			c-0.4-0.1-0.8-0.2-1.1-0.3c-0.2-0.1-0.5,0-0.7,0c-0.2,0.1-0.4,0.2-0.6,0.4c-0.5,0.6-0.9,1.2-1.2,1.8c-0.3,0.6-0.5,1.3-0.6,2.1
			c0,0.4,0,0.7,0.1,1.1c0.1,0.3,0.2,0.7,0.4,0.9c0.5,1.1,1.1,2.1,1.7,3c0.6,1,1.3,1.9,1.9,2.9c0.5,0.7,1,1.4,1.5,2.2
			c0.5,0.7,0.9,1.5,1.3,2.3c1.1,2.1,1.8,4.4,1.9,6.7c0.1,1.3,0,2.5-0.1,3.7c-0.1,1.2-0.4,2.4-0.7,3.6c-0.4,1.4-1,2.6-1.8,3.6
			c-0.8,1-1.9,1.8-3.3,2.4c-0.6,0.2-1.2,0.4-1.7,0.4c-0.6,0-1.2,0-1.8,0c-1.9-0.2-3.5-0.7-5-1.8c-0.6-0.4-1.1-0.9-1.6-1.4
			c-0.5-0.5-1-1-1.4-1.5c-1.1-1.4-1.8-2.9-2.2-4.7c-0.2-0.7-0.2-1.4-0.2-2.1c0.1-0.7,0.2-1.4,0.4-2.1c0.2-0.6,0.4-1.1,0.6-1.7
			C327.3,85.7,327.5,85.1,327.7,84.5z"/>
		<path fill="#F27024" d="M377.6,101.5c-0.3,0-0.6,0-0.9-0.1c-0.2-0.1-0.5-0.2-0.8-0.3c-0.3-0.2-0.5-0.4-0.8-0.7
			c-0.8-1.1-1.4-2.3-1.8-3.6c-0.4-1.3-0.8-2.6-1.1-3.9c-0.2-0.8-0.3-1.6-0.5-2.4c-0.1-0.8-0.2-1.6-0.3-2.5c-0.1-1.3-0.3-2.5-0.4-3.7
			c-0.1-1.2-0.3-2.5-0.4-3.7c0-0.3,0-0.7-0.1-1c0-0.3,0-0.7-0.1-1.1c-0.2,0.3-0.4,0.6-0.6,0.8c-0.2,0.3-0.3,0.5-0.4,0.8
			c-0.5,1.3-1,2.5-1.6,3.7c-0.6,1.2-1.2,2.4-1.9,3.6c-0.3,0.5-0.5,1-0.7,1.5c-0.2,0.5-0.5,1-0.7,1.5c-0.2,0.4-0.4,0.7-0.7,1
			c-0.2,0.3-0.5,0.7-0.7,1c-0.6,0.7-1.2,1.4-1.8,2s-1.4,1.1-2.2,1.5c-1.3,0.7-2.7,1-4.2,0.8c-0.7-0.1-1.3-0.3-1.8-0.6
			c-0.5-0.4-1-0.8-1.4-1.4c-0.4-0.6-0.7-1.1-0.9-1.8c-0.2-0.6-0.3-1.3-0.4-2c-0.2-1.3-0.2-2.5-0.1-3.8c0.1-1.2,0.3-2.5,0.6-3.8
			c0.2-0.9,0.4-1.8,0.7-2.7c0.2-0.9,0.6-1.7,1-2.6c1-2,2.4-3.7,4-5.3c1-0.9,2-1.8,3.1-2.6c1.1-0.8,2.2-1.5,3.5-2.1
			c1.3-0.6,2.5-1.1,3.8-1.5c1.3-0.4,2.6-0.7,3.9-0.9c0.1,0,0.1,0,0.2,0c0.1,0,0.1,0,0.2,0c0.2-0.7,0.4-1.3,0.6-1.9
			c0.2-0.6,0.4-1.2,0.6-1.8c0.1-0.3,0.2-0.5,0.5-0.6c0.2-0.1,0.6-0.2,0.9-0.1c0.7,0.1,1.1,0.3,1.5,0.8c0.3,0.5,0.5,1,0.6,1.4
			c0.1,0.6,0.2,1.2,0.1,1.9c0,0.6-0.1,1.2-0.1,1.9c-0.1,1.6-0.1,3.1-0.2,4.6c-0.1,1.5,0,3.1,0.1,4.6c0.2,1.9,0.4,3.9,0.7,5.7
			c0.3,1.9,0.7,3.8,1.1,5.7c0.2,1.1,0.5,2.3,0.8,3.4c0.3,1.1,0.6,2.2,0.9,3.3c0.2,0.6,0.3,1.2,0.5,1.9c0.2,0.6,0.4,1.2,0.6,1.9
			c0,0.1,0.1,0.3,0.1,0.6c0.1,0.4,0,0.7-0.1,0.9c-0.1,0.2-0.3,0.5-0.6,0.7c-0.2,0.2-0.4,0.4-0.7,0.5s-0.5,0.2-0.7,0.3
			C378.2,101.4,377.9,101.5,377.6,101.5z M358.7,91.8h0.2c0.2-0.1,0.3-0.1,0.4-0.2c1.5-0.9,2.6-2.1,3.4-3.6c0.2-0.4,0.5-0.9,0.7-1.3
			c0.2-0.4,0.4-0.9,0.7-1.3c0.4-0.8,0.9-1.7,1.4-2.4c0.5-0.8,0.9-1.6,1.2-2.6c0.3-0.7,0.6-1.4,0.9-2.1c0.3-0.7,0.7-1.4,0.9-2.1
			c0.4-0.9,0.7-1.8,1.1-2.7c0.4-0.9,0.7-1.8,0.9-2.7c0.1-0.3,0.1-0.6,0.2-0.9c0.1-0.3,0-0.6,0-0.9c-0.3,0.1-0.6,0.1-0.8,0.2
			c-0.2,0.1-0.5,0.2-0.7,0.3c-0.9,0.5-1.9,1-2.8,1.5c-0.9,0.5-1.8,1.1-2.6,1.7c-0.7,0.5-1.3,1.1-1.9,1.6c-0.6,0.6-1.1,1.2-1.5,2
			c-0.2,0.3-0.3,0.7-0.5,1c-0.2,0.3-0.3,0.7-0.5,1c-0.2,0.6-0.4,1.1-0.6,1.7c-0.2,0.6-0.4,1.1-0.5,1.7c-0.1,0.5-0.2,1-0.3,1.5
			c-0.1,0.5-0.1,1-0.2,1.6c-0.1,0.9-0.2,1.7-0.1,2.6s0.1,1.7,0.3,2.6c0.1,0.3,0.1,0.6,0.2,0.9C358.3,91.3,358.5,91.6,358.7,91.8z"/>
		<path fill="#F27024" d="M403.7,84.7c0.2-0.3,0.4-0.5,0.6-0.6c0.2-0.1,0.5-0.2,0.7-0.3c0.3-0.1,0.6-0.1,0.8,0
			c0.2,0.1,0.3,0.2,0.4,0.4c0.1,0.1,0.1,0.3,0.1,0.5c0,0.7,0,1.3,0,2c0,0.7,0,1.3,0,2c0,1.1,0.2,2.2,0.6,3.2c0.4,1,0.9,1.9,1.6,2.8
			c0.4,0.6,1.1,1,1.9,1.2c1.5,0.5,2.9,0.6,4.2,0.3c1.3-0.3,2.6-0.8,3.9-1.6c0.3-0.2,0.6-0.4,0.8-0.7c0.2-0.2,0.5-0.5,0.7-0.7
			c0.6-0.6,1-1.3,1.3-2.1c0.2-0.8,0.4-1.6,0.4-2.4c0.1-1.5,0-2.9-0.2-4.3c-0.2-1.4-0.6-2.8-1.1-4.2c-0.3-0.8-0.7-1.7-1.1-2.5
			c-0.4-0.8-0.9-1.6-1.5-2.3c-0.3-0.4-0.6-0.7-1-1.1c-0.3-0.3-0.7-0.7-1.1-0.9c-0.8-0.7-1.7-1.4-2.6-2.1c-0.9-0.6-1.8-1.2-2.8-1.7
			c-0.7-0.3-1.4-0.7-2.1-1.1c-0.7-0.4-1.3-0.9-1.9-1.4c-0.6-0.6-1.2-1.2-1.7-1.9c-0.5-0.7-0.9-1.4-1.3-2.2c-0.5-1.2-0.7-2.6-0.7-4
			c0.1-0.9,0.2-1.8,0.4-2.6c0.2-0.8,0.6-1.6,1.1-2.4c1.5-2.4,3.7-4.2,6.5-5.1c1.4-0.5,2.8-0.6,4.3-0.5c0.4,0.1,0.8,0.1,1.3,0.2
			c0.4,0.1,0.8,0.1,1.3,0.3c1,0.3,1.9,0.7,2.8,1.2c0.9,0.5,1.6,1.1,2.4,1.9c0.3,0.3,0.5,0.6,0.8,0.9c0.2,0.3,0.5,0.6,0.7,0.9
			c0.2,0.2,0.4,0.4,0.6,0.7c0.2,0.2,0.4,0.4,0.5,0.7c0.3,0.4,0.6,0.9,0.9,1.3c0.3,0.4,0.6,0.9,0.8,1.3c0.2,0.3,0.2,0.6,0.2,0.8
			c-0.1,0.2-0.2,0.4-0.4,0.6c-0.6,0.5-1.1,0.5-1.6,0.2c-0.4-0.2-0.7-0.5-1-0.7c-0.3-0.2-0.6-0.5-1-0.8c-0.5-0.4-1.1-0.8-1.7-1.1
			c-0.6-0.3-1.3-0.5-2-0.6c-1.1-0.2-2.1-0.2-3.1,0c-1,0.2-1.9,0.6-2.8,1.3c-1.3,1-1.7,2.1-1.3,3.3c0.1,0.4,0.4,0.8,0.7,1.1
			c0.3,0.3,0.7,0.5,1,0.7c0.6,0.4,1.2,0.7,1.8,1c0.6,0.3,1.2,0.7,1.8,1c1.8,1.1,3.5,2.4,4.9,4c0.5,0.6,1,1.2,1.5,1.8
			c0.5,0.6,0.9,1.3,1.3,2c0.5,0.8,0.9,1.6,1.4,2.5c0.4,0.8,0.8,1.7,1.1,2.6c0.2,0.8,0.5,1.6,0.7,2.4c0.2,0.8,0.4,1.6,0.5,2.5
			c0.3,2.6,0.2,5.1-0.3,7.6c-0.3,1.4-0.7,2.6-1.2,3.8c-0.6,1.2-1.3,2.3-2.1,3.4c-0.1,0.2-0.3,0.5-0.6,0.7c-1.1,0.8-2.1,1.6-3.3,2.2
			c-1.1,0.6-2.4,1.1-3.7,1.4c-1.8,0.4-3.5,0.4-5.1,0c-1.6-0.4-3.1-1.2-4.5-2.3c-0.4-0.3-0.7-0.7-1.1-1c-0.4-0.4-0.7-0.7-1-1.1
			c-0.5-0.6-0.9-1.3-1.2-2c-0.3-0.7-0.6-1.5-0.8-2.2c-0.5-1.3-0.8-2.6-0.8-4c0-0.6,0-1.2,0.1-1.7c0.1-0.6,0.1-1.2,0.2-1.7
			C403.6,85,403.6,84.9,403.7,84.7z"/>
		<path fill="#F27024" d="M438,98.4c0,0.5,0,0.9-0.1,1.2c-0.1,0.3-0.2,0.6-0.4,0.8c-0.2,0.2-0.4,0.4-0.7,0.6c-0.3,0.1-0.6,0.3-1,0.4
			c-0.8,0.2-1.5,0.3-2.2,0.2c-0.7-0.1-1.3-0.4-1.9-1c-0.2-0.2-0.4-0.5-0.4-0.9s0-0.6,0.2-0.9c0.2-0.2,0.3-0.5,0.5-0.7
			s0.4-0.4,0.6-0.6c0.1-0.2,0.3-0.3,0.4-0.5s0.3-0.3,0.5-0.4c0.5-0.3,1-0.5,1.5-0.6c0.4-0.1,0.8-0.1,1.1,0c0.4,0.1,0.7,0.3,1.1,0.5
			c0.4,0.2,0.6,0.5,0.8,0.8S438.1,98,438,98.4z"/>
		<path fill="#F27024" d="M468.1,97.3c0.5,0,0.9,0,1.3-0.2c0.4-0.2,0.8-0.3,1.1-0.5c0.6-0.3,1.1-0.6,1.6-0.9c0.5-0.3,1-0.7,1.5-1.1
			c1.6-1.3,3.3-2.4,5.1-3.3c0.3-0.1,0.6-0.3,0.9-0.4s0.7-0.2,1-0.2c0.4,0,0.7,0.1,0.9,0.3c0.2,0.2,0.2,0.5,0.1,0.9
			c-0.1,0.3-0.3,0.7-0.4,0.9c-0.2,0.3-0.4,0.5-0.7,0.7c-1.1,0.8-2.2,1.5-3.2,2.3c-1.1,0.8-2.1,1.5-3.2,2.3c-0.9,0.6-1.8,1.2-2.7,1.7
			c-0.9,0.5-1.9,0.9-3,1.1c-0.4,0.1-0.9,0.2-1.4,0.3c-0.5,0.1-0.9,0.1-1.4,0.2c-0.5,0.1-1,0-1.5-0.1c-0.5-0.1-1-0.3-1.5-0.5
			c-0.1-0.1-0.2-0.1-0.3-0.2c-0.1-0.1-0.2-0.2-0.2-0.3c-0.2-0.4-0.4-0.8-0.6-1.2c-0.2-0.4-0.3-0.8-0.4-1.2c-0.4-1.9-0.7-3.8-0.9-5.7
			c-0.2-1.9-0.3-3.8-0.5-5.7c-0.1-1.8-0.3-3.6-0.4-5.4c-0.2-1.8-0.4-3.6-0.6-5.4c-0.2-1.3-0.3-2.5-0.5-3.8c-0.1-1.3-0.2-2.6-0.3-3.8
			c-0.1-1.7-0.2-3.4-0.3-5c-0.1-1.7-0.1-3.4-0.2-5.1c0-1,0-1.9,0-2.9c0.1-1,0.1-1.9,0.2-2.9c0.1-0.5,0.2-1,0.3-1.6
			c0.2-0.5,0.3-1,0.5-1.6c0.1-0.3,0.3-0.4,0.5-0.5c0.2-0.1,0.5-0.1,0.7-0.1c0.8,0,1.5,0.2,2.1,0.7c0.6,0.5,1,1.2,1.2,1.9
			c0.2,0.6,0.3,1.3,0.5,1.9c0.1,0.6,0.2,1.3,0.3,1.9c0.1,0.4,0.1,0.8,0.1,1.2c0,0.4,0.1,0.8,0.1,1.2c0.1,0.7,0.1,1.4,0.1,2.1
			c0,0.7,0.1,1.5,0.1,2.2c0,0.7,0,1.4,0,2.1c0,0.7,0,1.4,0,2.1c0,0.2,0,0.3,0,0.5s0,0.3,0.1,0.4c0.1,0.5,0.2,1,0.2,1.6s0,1,0,1.6
			c0.1,0.4,0.1,0.9,0.1,1.4c0,0.5,0.1,0.9,0.1,1.4c0,0.3,0,0.5,0,0.7c0,0.2,0,0.5,0,0.7c0.1,0.8,0.2,1.7,0.3,2.5
			c0.1,0.8,0.2,1.7,0.5,2.5c0.1,0.4,0.2,0.9,0.2,1.3c0,0.4,0,0.9,0.1,1.3c0.1,0.5,0.2,1,0.2,1.5c0.1,0.5,0.2,1,0.2,1.5
			c0.1,0.8,0.3,1.5,0.4,2.3c0.1,0.8,0.2,1.6,0.2,2.3c0.1,1.1,0.2,2.2,0.3,3.2c0.1,1.1,0.3,2.1,0.4,3.2c0,0.2,0.1,0.4,0.1,0.5
			S468,97.1,468.1,97.3z"/>
		<path fill="#F27024" d="M509.7,81.3c0,1.3-0.1,2.4-0.1,3.4s-0.2,1.9-0.4,2.9c-0.2,0.8-0.4,1.6-0.7,2.3c-0.2,0.8-0.5,1.5-0.9,2.3
			c-0.4,0.7-0.8,1.4-1.1,2.1c-0.4,0.7-0.8,1.4-1.2,2.1c-0.4,0.7-0.9,1.3-1.5,1.8s-1.2,1-1.8,1.5c-0.1,0.1-0.1,0.1-0.1,0.1
			c0,0-0.1,0-0.1,0.1c-0.8,0.7-1.8,1.2-2.8,1.4s-2,0.3-3.1,0.3c-0.4,0-0.9,0-1.3-0.1c-0.4-0.1-0.9-0.2-1.3-0.3
			c-2.2-0.4-4.1-1.3-5.5-2.7s-2.6-3-3.5-5c-0.8-1.8-1.3-3.6-1.5-5.4c-0.2-1.8-0.3-3.7-0.1-5.6c0.1-1.4,0.3-2.8,0.6-4.2
			s0.7-2.7,1.1-4.1c0.7-2,1.6-3.9,2.6-5.6c1.1-1.7,2.4-3.3,4.1-4.7c2.2-1.8,4.7-2.8,7.5-3c1.3-0.1,2.5,0.2,3.6,0.7
			c1.1,0.5,2,1.3,2.9,2.3c0.9,1.2,1.7,2.5,2.2,3.8c0.5,1.4,0.9,2.7,1.3,4.2c0.2,0.9,0.4,1.7,0.5,2.6s0.2,1.7,0.4,2.6
			c0.1,0.8,0.2,1.5,0.3,2.2C509.8,80.2,509.8,80.8,509.7,81.3z M491,85.2c0,0.9,0.2,2,0.5,3.3c0.3,1.2,0.9,2.5,1.7,3.7
			c0.8,1.3,1.9,2.2,3.1,2.8c1.2,0.6,2.6,0.8,4.1,0.7c0.4-0.1,0.7-0.1,1.1-0.3c0.3-0.1,0.7-0.3,1-0.4c0.7-0.3,1.2-0.8,1.6-1.4
			c0.4-0.6,0.7-1.2,1.1-1.9c0.5-1.1,0.9-2.2,1.1-3.3c0.2-1.1,0.4-2.3,0.5-3.4c0.1-1,0.2-2,0.2-3s-0.1-1.9-0.3-2.9
			c-0.1-0.7-0.2-1.4-0.4-2.1c-0.1-0.7-0.2-1.4-0.4-2.1c-0.2-1-0.5-1.9-0.8-2.9c-0.3-0.9-0.7-1.8-1.2-2.7c-0.5-0.8-1-1.5-1.6-2.1
			c-0.6-0.6-1.4-1.1-2.2-1.5c-0.8-0.3-1.4-0.4-1.9-0.2c-0.5,0.1-1,0.5-1.5,1.2c-1.4,1.8-2.5,3.8-3.4,6c-0.7,1.9-1.2,3.8-1.6,5.8
			C491.3,80.6,491.1,82.8,491,85.2z"/>
		<path fill="#F27024" d="M536.1,68.6h-3.4c-0.4,0-0.7,0-1.1,0c-0.4,0-0.8,0-1.1,0c-1.6-0.1-3.1-0.2-4.6-0.2
			c-1.5-0.1-3.1-0.2-4.7-0.3c-0.8-0.1-1.7-0.1-2.5-0.3c-0.9-0.1-1.7-0.3-2.5-0.4c-0.8-0.1-1.4-0.5-1.8-1c-0.4-0.6-0.7-1.2-1-1.9
			c-0.1-0.3-0.2-0.5-0.1-0.7c0.1-0.1,0.3-0.3,0.6-0.4c0.5-0.3,1-0.5,1.5-0.6c0.5-0.1,1-0.2,1.6-0.3c1.3-0.1,2.7-0.3,4-0.4
			c1.3-0.2,2.6-0.3,4-0.5c0.4-0.1,0.8-0.1,1.2-0.1c0.4,0,0.8-0.1,1.2-0.1c1.7-0.1,3.4-0.2,5.1-0.2c1.7-0.1,3.4-0.1,5.1-0.2
			c0.8,0,1.7-0.1,2.5-0.1c0.8,0,1.6,0,2.5,0c0.4,0,0.7,0.1,1.1,0.2c0.4,0.1,0.7,0.2,1.1,0.2c0.5,0.1,1,0.3,1.5,0.5
			c0.5,0.2,1,0.3,1.5,0.5c0.2,0.1,0.4,0.2,0.6,0.3c0.2,0.2,0.4,0.4,0.6,0.6c0.2,0.2,0.3,0.4,0.4,0.7c0.1,0.2,0.2,0.4,0.2,0.6
			c0,0.4-0.1,0.7-0.5,1c-0.5,0.3-1,0.7-1.3,1.1c-0.4,0.4-0.7,0.9-1.1,1.3c-0.5,0.7-1.1,1.3-1.6,2c-0.5,0.6-1.1,1.3-1.7,1.9
			c-0.8,0.8-1.5,1.7-2.3,2.4c-0.8,0.8-1.6,1.6-2.4,2.4c-0.1,0.1-0.3,0.3-0.4,0.4c-0.1,0.1-0.2,0.3-0.4,0.5c1.3,0.2,2.7,0.4,3.9,0.6
			c1.3,0.2,2.5,0.6,3.7,1.1c0.1,0.3,0.1,0.4-0.2,0.6c-0.2,0.1-0.4,0.2-0.7,0.3c-0.2,0.1-0.5,0.2-0.7,0.2c-1.1,0.3-2.3,0.5-3.4,0.6
			c-1.1,0.1-2.3,0.1-3.5,0.1c-0.3,0-0.5,0.1-0.8,0.1s-0.5,0-0.8,0c-0.5-0.1-1,0-1.3,0.2c-0.4,0.2-0.7,0.5-1,0.8
			c-1.1,1.2-2.3,2.4-3.4,3.6c-1.2,1.2-2.3,2.4-3.4,3.6c-1.1,1.2-2.1,2.4-3,3.6c-1,1.2-1.9,2.5-2.9,3.7c-0.1,0.1-0.2,0.3-0.3,0.4
			c-0.1,0.2-0.2,0.3-0.3,0.6c0.3,0,0.5,0,0.6,0c1.5-0.5,3-1.1,4.6-1.6c1.5-0.5,3.1-1,4.7-1.4c0.9-0.2,1.8-0.5,2.7-0.7
			s1.8-0.5,2.7-0.8c1.1-0.3,2.2-0.6,3.3-0.8c1.1-0.3,2.3-0.4,3.5-0.4c0.6,0,1.2,0,1.8,0c0.6,0.1,1.2,0.1,1.8,0.2c0.1,0,0.2,0,0.3,0
			c0.1,0,0.2,0.1,0.3,0.1c0.3,0.1,0.5,0.1,0.6,0.2c0.1,0.1,0.2,0.1,0.3,0.2c0.1,0.1,0.1,0.2,0.1,0.4s0,0.4,0,0.7
			c-0.4,0.3-0.7,0.6-1,0.9c-0.2,0.2-0.5,0.4-0.8,0.6s-0.7,0.3-1,0.4c-0.3,0.1-0.6,0.2-1,0.2c-0.3,0-0.7,0.1-1,0.1
			c-0.9,0.1-1.8,0.2-2.6,0.4c-0.9,0.2-1.7,0.4-2.6,0.6c-1.8,0.4-3.5,0.9-5.3,1.3c-1.7,0.4-3.5,0.9-5.3,1.3c-0.4,0.1-0.7,0.2-1.1,0.3
			c-0.4,0.1-0.7,0.2-1.1,0.4c-1.2,0.4-2.3,0.7-3.5,0.9c-1.1,0.2-2.3,0.3-3.5,0.3c-0.4,0-0.7,0-1.1,0c-0.4,0-0.8,0-1.1,0
			c-0.3-0.1-0.7-0.2-1-0.3c-0.3-0.1-0.7-0.3-1-0.5c-0.4-0.2-0.7-0.5-0.8-0.8s-0.2-0.7-0.3-1.2c0-0.8,0.1-1.5,0.4-2.2
			s0.6-1.4,0.9-2.1c0.7-1.5,1.5-2.9,2.5-4.2c1-1.3,2-2.6,3-3.8c0.6-0.7,1.1-1.3,1.7-2c0.6-0.6,1.2-1.3,1.8-2
			c0.1-0.1,0.2-0.2,0.2-0.3c0.1-0.1,0.2-0.2,0.3-0.4c-0.5,0-0.9,0-1.4,0s-0.9,0-1.3,0c-0.3,0-0.6,0-0.8,0c-0.3,0-0.6,0.1-0.8,0.1
			c-0.2,0-0.4,0-0.7,0c-0.2,0-0.4,0-0.7,0.1c-0.5,0.1-0.8-0.1-0.9-0.5c-0.1-0.2-0.1-0.4,0.1-0.5c0.1-0.1,0.2-0.2,0.4-0.3
			c0.5-0.2,1.1-0.4,1.7-0.6c0.3-0.1,0.6-0.2,0.8-0.3c0.2-0.1,0.5-0.2,0.8-0.2c0.4-0.1,0.7-0.2,1.1-0.3c0.4-0.1,0.8-0.2,1.1-0.3
			c0.4-0.1,0.7-0.2,1.1-0.2c0.4-0.1,0.7-0.1,1.1-0.1c0.6,0,1.2-0.2,1.7-0.4c0.5-0.2,1-0.6,1.4-1c1.5-1.4,3-2.7,4.5-4.1s3-2.7,4.5-4
			c0.1-0.1,0.2-0.1,0.3-0.2c0.1-0.1,0.2-0.1,0.3-0.2c0-0.1-0.1-0.1-0.1-0.1C536.1,68.7,536.1,68.6,536.1,68.6z"/>
		<path fill="#F27024" d="M579.7,101.5c-0.3,0-0.6,0-0.9-0.1c-0.2-0.1-0.5-0.2-0.8-0.3c-0.3-0.2-0.5-0.4-0.8-0.7
			c-0.8-1.1-1.4-2.3-1.8-3.6c-0.4-1.3-0.8-2.6-1.1-3.9c-0.2-0.8-0.3-1.6-0.5-2.4s-0.2-1.6-0.3-2.5c-0.1-1.3-0.3-2.5-0.4-3.7
			s-0.3-2.5-0.4-3.7c0-0.3,0-0.7-0.1-1c0-0.3,0-0.7-0.1-1.1c-0.2,0.3-0.4,0.6-0.6,0.8c-0.2,0.3-0.3,0.5-0.4,0.8
			c-0.5,1.3-1,2.5-1.6,3.7c-0.6,1.2-1.2,2.4-1.9,3.6c-0.3,0.5-0.5,1-0.7,1.5c-0.2,0.5-0.5,1-0.7,1.5c-0.2,0.4-0.4,0.7-0.7,1
			c-0.2,0.3-0.5,0.7-0.7,1c-0.6,0.7-1.2,1.4-1.8,2c-0.6,0.6-1.4,1.1-2.2,1.5c-1.3,0.7-2.7,1-4.2,0.8c-0.7-0.1-1.3-0.3-1.8-0.6
			c-0.5-0.4-1-0.8-1.4-1.4c-0.4-0.6-0.7-1.1-0.9-1.8c-0.2-0.6-0.3-1.3-0.4-2c-0.2-1.3-0.2-2.5-0.1-3.8c0.1-1.2,0.3-2.5,0.6-3.8
			c0.2-0.9,0.4-1.8,0.7-2.7c0.2-0.9,0.6-1.7,1-2.6c1-2,2.4-3.7,4-5.3c1-0.9,2-1.8,3.1-2.6c1.1-0.8,2.2-1.5,3.5-2.1
			c1.3-0.6,2.5-1.1,3.8-1.5c1.3-0.4,2.6-0.7,3.9-0.9c0.1,0,0.1,0,0.2,0c0.1,0,0.1,0,0.2,0c0.2-0.7,0.4-1.3,0.6-1.9
			c0.2-0.6,0.4-1.2,0.6-1.8c0.1-0.3,0.2-0.5,0.5-0.6c0.2-0.1,0.6-0.2,0.9-0.1c0.7,0.1,1.1,0.3,1.5,0.8c0.3,0.5,0.5,1,0.6,1.4
			c0.1,0.6,0.2,1.2,0.1,1.9c0,0.6-0.1,1.2-0.1,1.9c-0.1,1.6-0.1,3.1-0.2,4.6s0,3.1,0.1,4.6c0.2,1.9,0.4,3.9,0.7,5.7
			c0.3,1.9,0.7,3.8,1.1,5.7c0.2,1.1,0.5,2.3,0.8,3.4c0.3,1.1,0.6,2.2,0.9,3.3c0.2,0.6,0.3,1.2,0.5,1.9c0.2,0.6,0.4,1.2,0.6,1.9
			c0,0.1,0.1,0.3,0.1,0.6c0.1,0.4,0,0.7-0.1,0.9c-0.1,0.2-0.3,0.5-0.6,0.7c-0.2,0.2-0.4,0.4-0.7,0.5s-0.5,0.2-0.7,0.3
			C580.3,101.4,580,101.5,579.7,101.5z M560.8,91.8h0.2c0.2-0.1,0.3-0.1,0.4-0.2c1.5-0.9,2.6-2.1,3.4-3.6c0.2-0.4,0.5-0.9,0.7-1.3
			c0.2-0.4,0.4-0.9,0.7-1.3c0.4-0.8,0.9-1.7,1.4-2.4s0.9-1.6,1.2-2.6c0.3-0.7,0.6-1.4,0.9-2.1c0.3-0.7,0.7-1.4,0.9-2.1
			c0.4-0.9,0.7-1.8,1.1-2.7c0.4-0.9,0.7-1.8,0.9-2.7c0.1-0.3,0.1-0.6,0.2-0.9c0.1-0.3,0-0.6,0-0.9c-0.3,0.1-0.6,0.1-0.8,0.2
			c-0.3,0.1-0.5,0.2-0.7,0.3c-0.9,0.5-1.9,1-2.8,1.5c-0.9,0.5-1.8,1.1-2.6,1.7c-0.7,0.5-1.3,1.1-1.9,1.6c-0.6,0.6-1.1,1.2-1.5,2
			c-0.2,0.3-0.3,0.7-0.5,1c-0.2,0.3-0.3,0.7-0.5,1c-0.2,0.6-0.4,1.1-0.6,1.7c-0.2,0.6-0.4,1.1-0.5,1.7c-0.1,0.5-0.2,1-0.3,1.5
			s-0.1,1-0.2,1.6c-0.1,0.9-0.2,1.7-0.1,2.6c0,0.9,0.1,1.7,0.3,2.6c0.1,0.3,0.1,0.6,0.2,0.9C560.5,91.3,560.6,91.6,560.8,91.8z"/>
		<path fill="#F27024" d="M593.2,87.3c0.2-0.5,0.3-1.1,0.5-1.6c0.2-0.5,0.3-1.1,0.4-1.6c0.2-0.9,0.4-1.8,0.7-2.6
			c0.3-0.9,0.6-1.7,0.9-2.5c0.4-0.9,0.8-1.8,1.2-2.8c0.4-0.9,0.8-1.9,1.3-2.8c0.4-0.8,0.8-1.6,1.2-2.4c0.4-0.8,0.9-1.6,1.3-2.3
			c0.4-0.6,0.7-1.2,1.1-1.9c0.4-0.6,0.8-1.2,1.2-1.8c0.3-0.4,0.6-0.8,0.9-1.1c0.3-0.4,0.7-0.7,1-1.1c0.2-0.2,0.4-0.4,0.5-0.6
			s0.3-0.4,0.5-0.6c0.3-0.4,0.8-0.6,1.4-0.6c0.3,0,0.6,0.1,0.8,0.1c0.2,0,0.5,0,0.8,0c0.3,0,0.6,0.1,0.7,0.3s0.4,0.4,0.5,0.6
			c0.2,0.3,0.4,0.5,0.5,0.8c0.1,0.3,0.2,0.6,0.3,0.9c0.3,1.3,0.5,2.6,0.5,3.8c0,1.3,0,2.6-0.1,3.9c-0.1,1.1-0.2,2.2-0.3,3.3
			c-0.1,1.1-0.2,2.2-0.2,3.3c-0.1,1.9-0.2,3.8-0.3,5.8c-0.1,1.9,0,3.8,0,5.8c0.1,0.9,0.1,1.8,0.1,2.8c0,0.9,0.1,1.8,0.3,2.8
			c0.1,0.3,0.1,0.6,0.1,0.8c0,0.3,0.1,0.5,0.1,0.8c0.1,0.2,0.1,0.4,0.1,0.6c0,0.2-0.1,0.4-0.2,0.6c0,0,0,0,0,0c0,0,0,0,0,0
			c0.1,0.4,0,0.8-0.3,1s-0.5,0.4-0.9,0.6c-0.3,0.1-0.7,0.3-1,0.4s-0.7,0.3-1,0.4c-0.5,0.2-1.1,0.2-1.7,0c-0.6-0.2-1.1-0.5-1.4-0.9
			c-0.1-0.1-0.1-0.2-0.1-0.4c0-0.1,0-0.3-0.1-0.4c0-0.1,0-0.2,0-0.3c0-0.1,0-0.2,0-0.3c-0.6-2.9-0.8-5.8-0.7-8.8c0-0.6,0-1.1,0-1.7
			c0-0.6,0-1.1,0.1-1.7c0.1-0.9,0.1-1.8,0.2-2.8c0.1-0.9,0.2-1.8,0.3-2.8c0.1-0.8,0.2-1.5,0.3-2.3c0.1-0.8,0.2-1.5,0.3-2.3
			c0.1-0.6,0.2-1.2,0.3-1.8c0.1-0.6,0.2-1.2,0.3-1.8c0.2-1.1,0.4-2.3,0.6-3.4c0.2-1.1,0.3-2.3,0.4-3.4c0-0.2,0-0.3,0-0.5
			c0-0.2,0-0.3,0-0.6c-0.8,0.6-1.5,1.2-2,2c-0.3,0.4-0.6,0.9-0.8,1.4c-0.3,0.5-0.5,0.9-0.8,1.4c-0.3,0.5-0.6,1-0.9,1.5
			c-0.3,0.5-0.6,1-0.9,1.5c-0.3,0.6-0.6,1.1-0.8,1.7c-0.4,0.8-0.7,1.6-1.1,2.3c-0.4,0.8-0.7,1.6-1.1,2.3c-0.2,0.4-0.3,0.8-0.4,1.2
			c-0.1,0.4-0.3,0.8-0.4,1.2c-0.3,1-0.7,2.1-1,3.1c-0.3,1-0.7,2.1-1,3.1c-0.2,0.5-0.3,1.1-0.4,1.6c-0.1,0.5-0.2,1.1-0.4,1.6
			c-0.2,0.8-0.3,1.5-0.4,2.3c-0.1,0.8-0.1,1.6-0.3,2.4c-0.1,0.4-0.1,0.7-0.2,1.1c-0.1,0.4-0.2,0.7-0.2,1.1c-0.1,0.3-0.1,0.7-0.1,1
			c0,0.3-0.1,0.7-0.2,1c-0.1,0.5-0.3,1-0.6,1.4c-0.1,0.2-0.2,0.4-0.3,0.5c-0.1,0.1-0.3,0.2-0.5,0.4c-0.2,0.1-0.4,0.1-0.6,0.1
			c-0.2,0-0.4,0-0.6,0c-0.2,0-0.4,0-0.6,0c-0.2,0-0.3-0.1-0.5-0.3c-0.6-0.6-1-1.3-1.3-2c-0.4-1.1-0.7-2.1-0.9-3.2
			c-0.2-1.1-0.4-2.1-0.5-3.3c-0.1-1.3-0.3-2.5-0.4-3.8c-0.2-1.3-0.3-2.5-0.4-3.8c-0.1-1.5-0.1-3-0.1-4.5c0-1.5,0-3,0-4.6
			c0-1.2,0-2.4,0.1-3.5c0.1-1.2,0.1-2.4,0.2-3.6c0.1-1.5,0.2-3,0.4-4.7c0.1-0.4,0.1-0.9,0.3-1.3c0.1-0.4,0.3-0.9,0.6-1.3
			c0.3-0.4,0.6-0.6,1.1-0.7c0.4-0.1,0.7,0,1,0c0.3,0.1,0.6,0.3,0.8,0.7c0.2,0.4,0.4,0.7,0.6,1.1c0.1,0.4,0.2,0.8,0.3,1.2
			c0.1,0.5,0.1,1,0.2,1.5s0.2,1,0.2,1.5c0.1,0.7,0.2,1.5,0.3,2.2c0.1,0.7,0.1,1.4,0.1,2.2c0.1,1.1,0.1,2.2,0.2,3.3
			c0.1,1.1,0.1,2.2,0.2,3.3c0.1,1.2,0.1,2.4,0.2,3.5s0.1,2.3,0.2,3.5c0,0.4,0.1,0.7,0.1,1.1c0,0.4,0.1,0.7,0.1,1.1H593.2z"/>
		<path fill="#F27024" d="M641.5,81.3c0,1.3-0.1,2.4-0.1,3.4s-0.2,1.9-0.4,2.9c-0.2,0.8-0.4,1.6-0.7,2.3c-0.2,0.8-0.5,1.5-0.9,2.3
			c-0.4,0.7-0.8,1.4-1.1,2.1c-0.4,0.7-0.8,1.4-1.2,2.1c-0.4,0.7-0.9,1.3-1.5,1.8s-1.2,1-1.8,1.5c-0.1,0.1-0.1,0.1-0.1,0.1
			c0,0-0.1,0-0.1,0.1c-0.8,0.7-1.8,1.2-2.8,1.4s-2,0.3-3.1,0.3c-0.4,0-0.9,0-1.3-0.1c-0.4-0.1-0.9-0.2-1.3-0.3
			c-2.2-0.4-4.1-1.3-5.5-2.7s-2.6-3-3.5-5c-0.8-1.8-1.3-3.6-1.5-5.4c-0.2-1.8-0.3-3.7-0.1-5.6c0.1-1.4,0.3-2.8,0.6-4.2
			s0.7-2.7,1.1-4.1c0.7-2,1.6-3.9,2.6-5.6c1.1-1.7,2.4-3.3,4.1-4.7c2.2-1.8,4.7-2.8,7.5-3c1.3-0.1,2.5,0.2,3.6,0.7
			c1.1,0.5,2,1.3,2.9,2.3c0.9,1.2,1.7,2.5,2.2,3.8c0.5,1.4,0.9,2.7,1.3,4.2c0.2,0.9,0.4,1.7,0.5,2.6s0.2,1.7,0.4,2.6
			c0.1,0.8,0.2,1.5,0.3,2.2C641.6,80.2,641.6,80.8,641.5,81.3z M622.8,85.2c0,0.9,0.2,2,0.5,3.3c0.3,1.2,0.9,2.5,1.7,3.7
			c0.8,1.3,1.9,2.2,3.1,2.8c1.2,0.6,2.6,0.8,4.1,0.7c0.4-0.1,0.7-0.1,1.1-0.3c0.3-0.1,0.7-0.3,1-0.4c0.7-0.3,1.2-0.8,1.6-1.4
			c0.4-0.6,0.7-1.2,1.1-1.9c0.5-1.1,0.9-2.2,1.1-3.3c0.2-1.1,0.4-2.3,0.5-3.4c0.1-1,0.2-2,0.2-3s-0.1-1.9-0.3-2.9
			c-0.1-0.7-0.2-1.4-0.4-2.1c-0.1-0.7-0.2-1.4-0.4-2.1c-0.2-1-0.5-1.9-0.8-2.9c-0.3-0.9-0.7-1.8-1.2-2.7c-0.5-0.8-1-1.5-1.6-2.1
			c-0.6-0.6-1.4-1.1-2.2-1.5c-0.8-0.3-1.4-0.4-1.9-0.2c-0.5,0.1-1,0.5-1.5,1.2c-1.4,1.8-2.5,3.8-3.4,6c-0.7,1.9-1.2,3.8-1.6,5.8
			C623.1,80.6,622.9,82.8,622.8,85.2z"/>
	</g>
</g>
<g>
</g>
<g>
</g>
<g>
</g>
<g>
</g>
<g>
</g>
<g>
</g>
</svg>
