<?xml version="1.0" encoding="utf-8"?>
<!-- Generator: Adobe Illustrator 18.0.0, SVG Export Plug-In . SVG Version: 6.00 Build 0)  -->
<!DOCTYPE svg PUBLIC "-//W3C//DTD SVG 1.1//EN" "http://www.w3.org/Graphics/SVG/1.1/DTD/svg11.dtd">
<svg version="1.1" id="Layer_1" xmlns="http://www.w3.org/2000/svg" xmlns:xlink="http://www.w3.org/1999/xlink" x="0px" y="0px"
	 viewBox="0 0 339.1 87.5" enable-background="new 0 0 339.1 87.5" xml:space="preserve">
<g>
	<g>
		<g>
			<ellipse fill="none" stroke="#FCC21D" stroke-width="1.5" stroke-miterlimit="10" cx="11.2" cy="10.6" rx="7.7" ry="7.5"/>
			<path fill="none" stroke="#FCC21D" stroke-width="1.5" stroke-miterlimit="10" d="M14.4,18.6c-1.8-0.3-3.2-0.3-3.2-0.3
				s-2.7,0-5.5,0.4C3.1,19,0.9,20,0.9,20L6,44.3l5.2,24.3l5.2-24.3l4.3-20.6C20.2,23.4,14.9,19,14.4,18.6z"/>
			<line fill="none" stroke="#FCC21D" stroke-width="1.5" stroke-miterlimit="10" x1="11.2" y1="3.1" x2="11.2" y2="66.4"/>
			<line fill="none" stroke="#FCC21D" stroke-width="1.5" stroke-miterlimit="10" x1="3.5" y1="10.6" x2="19.4" y2="10.6"/>
		</g>
		<circle fill="none" stroke="#FCC21D" stroke-width="1.5" stroke-miterlimit="10" cx="12.7" cy="76.8" r="7.7"/>
		<line fill="none" stroke="#FCC21D" stroke-width="1.5" stroke-miterlimit="10" x1="11.3" y1="69.3" x2="14.2" y2="84.6"/>
		<line fill="none" stroke="#FCC21D" stroke-width="1.5" stroke-miterlimit="10" x1="5.3" y1="78.4" x2="21" y2="75.4"/>
		<g>
			<path fill="none" stroke="#FCC21D" stroke-width="1.5" stroke-miterlimit="10" d="M37.1,33.5l2.4-7.8l5.1-14c0,0,0.9,0,1.8,0.3
				c1.2,0.4,2.5,1,2.5,1s1.1,0.7,2,1.4c0.8,0.7,1.1,1.9,1.1,1.9l-9,10.8L37.1,33.5z"/>
			<line fill="none" stroke="#FCC21D" stroke-width="1.5" stroke-miterlimit="10" x1="49" y1="12.9" x2="37.7" y2="32.5"/>
		</g>
		<g>
			
				<ellipse transform="matrix(0.9793 -0.2024 0.2024 0.9793 -0.4151 10.9848)" fill="none" stroke="#FCC21D" stroke-width="1.5" stroke-miterlimit="10" cx="53.5" cy="7.5" rx="7" ry="6.8"/>
			<path fill="none" stroke="#FCC21D" stroke-width="1.5" stroke-miterlimit="10" d="M64.1,59l0.1-22.5L64.4,14c0,0-1.8-0.4-3.7-0.3
				c-2.7,0-5.8,0.9-5.8,0.9c-0.3,0.1-2,0.5-3.2,1c-0.2,0.1,0.3,0.6-0.4,1.4c-1.6,1.8-3.7,4.4-3.7,4.4l7.4,17L64.1,59z"/>
			<line fill="none" stroke="#FCC21D" stroke-width="1.5" stroke-miterlimit="10" x1="52.1" y1="0.9" x2="63.8" y2="57.5"/>
			<line fill="none" stroke="#FCC21D" stroke-width="1.5" stroke-miterlimit="10" x1="46.7" y1="8.9" x2="60.8" y2="6"/>
		</g>
		<g>
			<circle fill="none" stroke="#FCC21D" stroke-width="1.5" stroke-miterlimit="10" cx="65.6" cy="64.5" r="5.7"/>
			<line fill="none" stroke="#FCC21D" stroke-width="1.5" stroke-miterlimit="10" x1="64.2" y1="59" x2="67" y2="70.3"/>
			<line fill="none" stroke="#FCC21D" stroke-width="1.5" stroke-miterlimit="10" x1="60" y1="65.9" x2="71.5" y2="63"/>
		</g>
		<g>
			<circle fill="none" stroke="#FCC21D" stroke-width="1.5" stroke-miterlimit="10" cx="35.6" cy="35.2" r="3.2"/>
			<line fill="none" stroke="#FCC21D" stroke-width="1.5" stroke-miterlimit="10" x1="33.2" y1="33.2" x2="38.2" y2="37.3"/>
			<line fill="none" stroke="#FCC21D" stroke-width="1.5" stroke-miterlimit="10" x1="33.6" y1="37.6" x2="37.8" y2="32.5"/>
		</g>
		<g>
			<path fill="none" stroke="#FCC21D" stroke-width="1.5" stroke-miterlimit="10" d="M33.2,33l-3.9-7.2L21.6,13c0,0-0.9,0.2-1.7,0.6
				c-1.1,0.6-2.2,1.6-2.2,1.6S16.9,16,16.2,17c-0.7,0.9-1.4,2.3-1.4,2.3l11.4,8.6L33.2,33z"/>
			<line fill="none" stroke="#FCC21D" stroke-width="1.5" stroke-miterlimit="10" x1="17.5" y1="14.9" x2="32.3" y2="32"/>
		</g>
		<line fill="none" stroke="#FCC21D" stroke-width="1.5" stroke-miterlimit="10" x1="51.8" y1="14.8" x2="52.8" y2="14.9"/>
		<line fill="none" stroke="#FCC21D" stroke-width="1.5" stroke-miterlimit="10" x1="14.7" y1="18" x2="14.9" y2="17.8"/>
		<g>
			<g>
				<circle fill="none" stroke="#FCC21D" stroke-width="1.5" stroke-miterlimit="10" cx="87.1" cy="12.7" r="7.7"/>
				<path fill="none" stroke="#FCC21D" stroke-width="1.5" stroke-miterlimit="10" d="M78,71.9l8.9-24l8.9-24c0,0-1.7-1.1-3.6-1.8
					c-2.8-1.1-6.3-1.5-6.3-1.5s-2.7-0.4-5.5-0.4c-2.6-0.1-5,0.6-5,0.6l1.3,25.6L78,71.9z"/>
				<line fill="none" stroke="#FCC21D" stroke-width="1.5" stroke-miterlimit="10" x1="88.3" y1="5.1" x2="78.3" y2="69.7"/>
				<line fill="none" stroke="#FCC21D" stroke-width="1.5" stroke-miterlimit="10" x1="79.5" y1="11.5" x2="95.3" y2="14"/>
			</g>
			<g>
				
					<ellipse transform="matrix(0.1255 -0.9921 0.9921 0.1255 -9.5471 144.636)" fill="none" stroke="#FCC21D" stroke-width="1.5" stroke-miterlimit="10" cx="77.3" cy="77.7" rx="5.7" ry="5.6"/>
				<line fill="none" stroke="#FCC21D" stroke-width="1.5" stroke-miterlimit="10" x1="71.7" y1="77" x2="82.9" y2="78.4"/>
				<line fill="none" stroke="#FCC21D" stroke-width="1.5" stroke-miterlimit="10" x1="76.6" y1="83.4" x2="78" y2="71.7"/>
			</g>
			<g>
				
					<ellipse transform="matrix(-7.419562e-03 1 -1 -7.419562e-03 207.0002 -47.8518)" fill="none" stroke="#FCC21D" stroke-width="1.5" stroke-miterlimit="10" cx="127.2" cy="78.8" rx="5.9" ry="5.7"/>
				<path fill="none" stroke="#FCC21D" stroke-width="1.5" stroke-miterlimit="10" d="M83,78.5l18.5,4.1l18.5,4.1c0,0,0.6-1.4,0.9-3
					c0.5-2.2,0.4-4.9,0.4-4.9s0-2.1-0.3-4.2c-0.2-2-1-3.7-1-3.7l-18.6,3.8L83,78.5z"/>
				<line fill="none" stroke="#FCC21D" stroke-width="1.5" stroke-miterlimit="10" x1="132.9" y1="78.9" x2="84.6" y2="78.5"/>
				<line fill="none" stroke="#FCC21D" stroke-width="1.5" stroke-miterlimit="10" x1="127.3" y1="72.9" x2="127.2" y2="85.1"/>
			</g>
		</g>
	</g>
</g>
<g>
	<g>
		<path fill="#F27024" d="M114.8,53.2c-0.2,0.4-0.3,0.8-0.5,0.9c-0.2,0.2-0.3,0.3-0.5,0.3c-0.2,0.1-0.3,0-0.5,0
			c-0.3-0.2-0.5-0.5-0.6-0.8c-0.1-0.3-0.2-0.6-0.2-1c0-0.6,0-1.3,0-1.9c0-0.6,0-1.3,0-1.9c0-0.6,0-1.2,0-1.7c0-0.6,0-1.1,0-1.7
			c0-0.3,0-0.6,0-0.9c0-0.3,0-0.6,0-0.9c0-0.4,0-0.9,0.1-1.3c0-0.4,0-0.9,0-1.3c0-0.4,0-0.8,0-1.2c0-0.4,0-0.8,0-1.2
			c0-0.4,0-0.8,0.1-1.2s0-0.8,0.1-1.2c0-0.7,0-1.4,0.1-2.2c0-0.7,0-1.4,0.1-2.2c0-0.4,0.1-0.8,0.1-1.1c0-0.4,0.1-0.8,0.1-1.1
			c0-0.3,0-0.7,0-1.1c0-0.1,0-0.2,0-0.3c0.1-0.1,0.1-0.2,0.2-0.2c0.2-0.3,0.4-0.4,0.7-0.4c0.2,0,0.5,0,0.8,0.2
			c0.1,0,0.1,0.1,0.2,0.1c0,0,0.1,0,0.2,0.1c0.2,0.1,0.2,0.2,0.3,0.3c0,0.1,0.1,0.1,0.1,0.2c0,0,0.1,0.1,0.2,0.2
			c0.2,0.3,0.5,0.5,0.7,0.8c0.2,0.3,0.5,0.5,0.7,0.7c0.2,0.2,0.4,0.4,0.7,0.6c0.2,0.2,0.5,0.4,0.7,0.6c0.3,0.3,0.6,0.6,0.9,0.8
			c0.3,0.3,0.6,0.5,0.9,0.8s0.5,0.6,0.8,0.8c0.3,0.3,0.5,0.5,0.8,0.8c0.2,0.2,0.4,0.5,0.6,0.7c0.2,0.3,0.4,0.5,0.6,0.7
			c0.1,0.1,0.1,0.2,0.2,0.2c0.1,0.1,0.2,0.2,0.2,0.2c0.1,0.1,0.2,0.3,0.4,0.4c0.1,0.1,0.2,0.3,0.4,0.4c0.1,0.1,0.1,0.1,0.2,0.1
			c0.2-0.3,0.4-0.5,0.5-0.8c0.2-0.3,0.3-0.5,0.5-0.8c0.2-0.3,0.5-0.6,0.7-0.9c0.2-0.3,0.5-0.6,0.7-0.9c0.2-0.2,0.4-0.5,0.6-0.7
			c0.2-0.2,0.4-0.5,0.6-0.8c0.2-0.2,0.4-0.5,0.5-0.7c0.2-0.2,0.3-0.5,0.5-0.7c0.1-0.1,0.2-0.2,0.3-0.4c0.1-0.1,0.2-0.2,0.3-0.4
			c0,0,0,0,0,0s0,0,0-0.1c0,0,0-0.1,0.1-0.1c0,0,0-0.1,0.1-0.1c0.2-0.2,0.4-0.4,0.6-0.7c0.2-0.3,0.3-0.5,0.6-0.7
			c0.1-0.1,0.2-0.3,0.4-0.4c0.1-0.1,0.2-0.2,0.4-0.4c0.1-0.1,0.1-0.1,0.2-0.2c0.1-0.1,0.1-0.1,0.2-0.2c0-0.1,0.1-0.1,0.1-0.2
			c0.1,0,0.1-0.1,0.2-0.1c0.1-0.1,0.2-0.2,0.4-0.3c0.1-0.1,0.3-0.2,0.4-0.2c0.4-0.2,0.7,0,1,0.3c0.2,0.3,0.4,0.7,0.5,1
			s0.1,0.7,0.2,1.1c0,0.3,0.1,0.6,0.1,0.9c0,0.3,0,0.6,0,0.9c0,0.6-0.1,1.2-0.1,1.7c0,0.6-0.1,1.2-0.1,1.7c0,0.4-0.1,0.8-0.1,1.2
			s-0.1,0.8-0.1,1.2c0,0.4,0,0.9-0.1,1.4c0,0.5,0,0.9-0.1,1.4c0,0.2,0,0.4,0,0.6c0,0.2,0,0.4-0.1,0.6c0,0.2,0,0.3,0,0.5
			c0,0.2,0,0.3,0,0.5c0,0.3,0,0.5,0,0.8s0,0.5,0,0.8c0,0.2,0,0.5,0,0.7c0,0.2,0,0.5,0,0.7v2.7c0,0.3,0,0.6,0,0.9c0,0.3,0,0.6,0,0.9
			v1.7c0,0.2,0,0.3,0,0.5c0,0.2,0,0.3,0,0.5c0,0.4-0.1,0.7-0.1,1c-0.1,0.3-0.2,0.6-0.5,0.9c-0.2,0.2-0.4,0.3-0.6,0.4
			c-0.2,0.1-0.5,0.1-0.7,0.1c-0.2,0-0.4,0-0.5,0c-0.2,0-0.3-0.1-0.5-0.1c-0.1,0-0.2,0-0.3-0.1c-0.2-0.2-0.3-0.4-0.4-0.6
			c-0.1-0.2-0.1-0.5-0.2-0.7c-0.1-0.2-0.1-0.3-0.1-0.5s-0.1-0.3-0.1-0.5c0-0.2,0-0.4,0-0.6c0-0.2,0-0.4,0-0.6v-1.4
			c0-0.2,0-0.4,0-0.6s0-0.4,0-0.6c0-0.3,0-0.5,0-0.8c0-0.3,0-0.5,0-0.8c0-0.5,0-1,0.1-1.5c0-0.5,0-1,0.1-1.5c0-0.4,0.1-0.8,0.1-1.2
			s0-0.8,0.1-1.3c0-0.4,0-0.8,0-1.2c0-0.4,0-0.8,0-1.2c0-0.7,0.1-1.5,0.1-2.2c0-0.3,0.1-0.6,0.1-0.9c0-0.3,0.1-0.6,0.1-0.9
			c-0.1,0.1-0.1,0.1-0.2,0.2c-0.1,0.1-0.1,0.1-0.1,0.2c-0.3,0.3-0.6,0.7-0.9,1c-0.3,0.3-0.6,0.7-0.9,1.1c-0.2,0.2-0.4,0.4-0.5,0.7
			c-0.2,0.3-0.5,0.6-0.7,1c-0.2,0.3-0.5,0.7-0.8,1c-0.1,0.1-0.2,0.3-0.4,0.4c-0.1,0.1-0.3,0.2-0.4,0.3c-0.1,0.1-0.2,0.1-0.2,0.2
			c-0.1,0.1-0.2,0.2-0.2,0.2c-0.1,0.1-0.2,0.2-0.3,0.2s-0.2,0.1-0.4,0c-0.1,0-0.1,0-0.2,0s-0.1,0-0.2,0c-0.1-0.1-0.3-0.1-0.4-0.2
			c-0.1-0.1-0.2-0.2-0.4-0.3c-0.1-0.1-0.2-0.2-0.2-0.3s-0.2-0.2-0.3-0.3c-0.2-0.1-0.3-0.2-0.3-0.3c-0.1-0.1-0.2-0.2-0.3-0.4
			c-0.1-0.1-0.2-0.2-0.3-0.3c-0.1-0.1-0.2-0.2-0.3-0.3c-0.3-0.4-0.7-0.8-1-1.2s-0.7-0.8-1-1.2c-0.3-0.3-0.6-0.6-0.8-0.9
			c-0.3-0.3-0.6-0.6-0.8-0.9c-0.3-0.3-0.6-0.6-0.9-0.9s-0.6-0.6-0.9-0.8c0,0-0.1-0.1-0.1-0.1c0,0-0.1-0.1-0.1-0.1c0,0.1,0,0.2,0,0.3
			c0,0.1,0,0.2,0,0.2c0.1,0.6,0.1,1.2,0.1,1.9c0,0.6,0,1.3,0,1.9c0,0.3,0,0.6,0,0.9c0,0.3,0,0.6,0,0.9c0,0.4-0.1,0.9-0.1,1.3
			c0,0.4,0,0.9-0.1,1.3c0,0.4-0.1,0.7-0.1,1.1c0,0.4-0.1,0.7-0.1,1.1l-0.3,3.2c0,0.5-0.1,0.9-0.1,1.4c0,0.5-0.1,0.9-0.1,1.4
			c0,0.3-0.1,0.6-0.1,0.9c0,0.3-0.1,0.6-0.2,0.9C115.2,51.9,115,52.6,114.8,53.2z"/>
		<path fill="#F27024" d="M150.2,54.5c-0.2,0-0.3,0-0.5-0.1c-0.1,0-0.3-0.1-0.4-0.2s-0.3-0.2-0.4-0.4c-0.4-0.6-0.7-1.2-1-1.9
			c-0.2-0.7-0.4-1.4-0.6-2.1c-0.1-0.4-0.2-0.9-0.2-1.3c-0.1-0.4-0.1-0.9-0.2-1.3c-0.1-0.7-0.1-1.3-0.2-2c-0.1-0.6-0.1-1.3-0.2-2
			c0-0.2,0-0.4,0-0.5c0-0.2,0-0.4-0.1-0.6c-0.1,0.2-0.2,0.3-0.3,0.4c-0.1,0.1-0.2,0.3-0.2,0.4c-0.2,0.7-0.5,1.3-0.9,1.9
			c-0.3,0.6-0.7,1.3-1,1.9c-0.2,0.3-0.3,0.5-0.4,0.8c-0.1,0.3-0.2,0.5-0.4,0.8c-0.1,0.2-0.2,0.4-0.4,0.6c-0.1,0.2-0.2,0.3-0.4,0.5
			c-0.3,0.4-0.6,0.7-1,1c-0.3,0.3-0.7,0.6-1.2,0.8c-0.7,0.4-1.4,0.5-2.2,0.4c-0.4,0-0.7-0.1-0.9-0.3c-0.3-0.2-0.5-0.4-0.7-0.7
			c-0.2-0.3-0.4-0.6-0.5-0.9c-0.1-0.3-0.2-0.7-0.2-1c-0.1-0.7-0.1-1.3-0.1-2c0.1-0.7,0.2-1.3,0.3-2c0.1-0.5,0.2-1,0.4-1.4
			c0.1-0.5,0.3-0.9,0.6-1.4c0.5-1,1.2-2,2.1-2.8c0.5-0.5,1.1-1,1.6-1.4s1.2-0.8,1.9-1.1c0.7-0.3,1.3-0.6,2-0.8s1.4-0.4,2.1-0.5
			c0,0,0.1,0,0.1,0c0,0,0.1,0,0.1,0c0.1-0.3,0.2-0.7,0.3-1c0.1-0.3,0.2-0.6,0.3-0.9c0-0.2,0.1-0.3,0.3-0.3c0.1-0.1,0.3-0.1,0.5-0.1
			c0.3,0,0.6,0.2,0.8,0.4c0.2,0.3,0.3,0.5,0.3,0.7c0.1,0.3,0.1,0.6,0.1,1c0,0.3,0,0.7-0.1,1c0,0.8-0.1,1.6-0.1,2.4s0,1.6,0.1,2.4
			c0.1,1,0.2,2,0.4,3c0.2,1,0.4,2,0.6,3c0.1,0.6,0.3,1.2,0.4,1.8c0.2,0.6,0.3,1.2,0.5,1.8c0.1,0.3,0.2,0.7,0.3,1
			c0.1,0.3,0.2,0.6,0.3,1c0,0.1,0,0.2,0.1,0.3c0,0.2,0,0.3-0.1,0.5s-0.2,0.2-0.3,0.4c-0.1,0.1-0.2,0.2-0.4,0.3s-0.3,0.1-0.4,0.2
			C150.5,54.4,150.4,54.5,150.2,54.5z M140.2,49.4h0.1c0.1,0,0.1-0.1,0.2-0.1c0.8-0.5,1.4-1.1,1.8-1.9c0.1-0.2,0.2-0.5,0.3-0.7
			c0.1-0.2,0.2-0.5,0.3-0.7c0.2-0.4,0.5-0.9,0.8-1.3c0.3-0.4,0.5-0.9,0.7-1.4c0.1-0.4,0.3-0.7,0.5-1.1c0.2-0.4,0.3-0.7,0.5-1.1
			c0.2-0.5,0.4-0.9,0.6-1.4c0.2-0.5,0.4-0.9,0.5-1.4c0-0.2,0.1-0.3,0.1-0.5c0-0.2,0-0.3,0-0.5c-0.2,0-0.3,0.1-0.4,0.1
			c-0.1,0-0.3,0.1-0.4,0.2c-0.5,0.2-1,0.5-1.5,0.8c-0.5,0.3-0.9,0.6-1.4,0.9c-0.4,0.3-0.7,0.6-1,0.9c-0.3,0.3-0.6,0.6-0.8,1.1
			c-0.1,0.2-0.2,0.4-0.3,0.5c-0.1,0.2-0.2,0.3-0.2,0.5c-0.1,0.3-0.2,0.6-0.3,0.9c-0.1,0.3-0.2,0.6-0.3,0.9c-0.1,0.3-0.1,0.5-0.1,0.8
			c0,0.3-0.1,0.5-0.1,0.8c-0.1,0.5-0.1,0.9-0.1,1.4c0,0.5,0.1,0.9,0.1,1.4c0,0.2,0.1,0.3,0.1,0.5C140,49.1,140.1,49.3,140.2,49.4z"
			/>
		<path fill="#F27024" d="M165,36.1c0.1,0.6,0.1,1.1,0.2,1.7c0,0.6,0.1,1.1,0.1,1.7c0,0.1,0,0.2,0,0.4c0,0.1,0,0.2-0.1,0.4l-0.1,1.2
			c-0.2,0.1-0.3,0.1-0.4,0.1c-0.1,0-0.2-0.1-0.3-0.2c-0.4-0.5-0.6-1-0.7-1.6c-0.1-0.4-0.1-0.8-0.1-1.2s-0.1-0.8-0.1-1.2
			c0-0.3-0.1-0.6-0.2-0.9c-0.1-0.3-0.1-0.6-0.2-0.9c0-0.1-0.1-0.2-0.1-0.3c0-0.1-0.1-0.2-0.2-0.3c-0.1,0.1-0.3,0.2-0.4,0.3
			c-0.1,0.1-0.3,0.2-0.4,0.3c-0.5,0.5-0.9,1-1.4,1.5c-0.4,0.5-0.8,1.1-1.2,1.7c-0.3,0.5-0.6,1.1-0.9,1.7c-0.2,0.6-0.4,1.2-0.6,1.8
			c0,0.1,0,0.1,0,0.2c0,0.1,0,0.2,0,0.3c0,0.4,0.1,0.7,0.1,1.1c0,0.4,0.1,0.7,0.2,1.1c0.1,0.4,0.2,0.9,0.2,1.4
			c0,0.5,0.1,0.9,0.2,1.4c0,0.1,0.1,0.3,0.1,0.4c0,0.1,0,0.2,0.1,0.4c0,0.3,0.1,0.6,0.1,0.9c0,0.3,0.1,0.6,0.1,0.9
			c0,0.3,0.1,0.6,0.1,0.9s0.1,0.6,0.1,0.9c0,0.1,0.1,0.2,0.1,0.4s0.1,0.2,0.1,0.4c0,0.1,0,0.2,0,0.3c0,0.1,0,0.2,0,0.3
			c0,0.2,0,0.4-0.1,0.5c0,0.2-0.1,0.3-0.2,0.5l-0.1,0.1c-0.1,0.1-0.3,0.1-0.4,0.1c-0.1,0.1-0.3,0.1-0.6,0.2
			c-0.2,0.1-0.5,0.1-0.7,0.1s-0.5,0-0.7-0.1c-0.2-0.1-0.3-0.2-0.4-0.4c-0.2-0.6-0.4-1.3-0.5-2.2c-0.2-0.9-0.3-1.8-0.5-2.9
			c-0.2-1-0.3-2.1-0.5-3.3c-0.2-1.1-0.3-2.3-0.4-3.4c-0.1-1.1-0.2-2.2-0.4-3.2s-0.2-1.9-0.3-2.7s-0.1-1.4-0.2-1.9s-0.1-0.7-0.1-0.7
			c0,0,0.1-0.1,0.2-0.1c0.1-0.1,0.2-0.1,0.4-0.1s0.3-0.1,0.4-0.1c0.2,0,0.3-0.1,0.4-0.1c0,0,0,0,0.1,0c0,0,0,0,0,0v0
			c0.1,0,0.2,0,0.2,0c0.1,0,0.1,0,0.2,0c0.2,0,0.3,0,0.3,0.1c0.1,0.1,0.1,0.2,0.2,0.3c0.3,0.4,0.5,0.9,0.7,1.4
			c0.2,0.5,0.3,1,0.5,1.5c0.1,0.4,0.2,0.7,0.2,1.1c0.1,0.4,0.1,0.7,0.2,1.1c0,0,0,0.1,0,0.1c0,0,0,0.1,0,0.1
			c0.1-0.1,0.1-0.2,0.1-0.3c0-0.1,0.1-0.2,0.1-0.2c0.3-0.6,0.6-1.3,1.1-1.9c0.4-0.5,0.7-0.9,1.1-1.4c0.4-0.5,0.8-0.9,1.3-1.2
			c0.1-0.1,0.2-0.2,0.3-0.2s0.2-0.2,0.3-0.3c0.2-0.2,0.5-0.3,0.8-0.4c0.3,0,0.6-0.1,0.9,0c0.1,0,0.2,0.1,0.3,0.1
			c0.1,0.1,0.2,0.2,0.2,0.3c0.3,0.4,0.5,0.8,0.6,1.2S164.9,35.7,165,36.1z"/>
		<path fill="#F27024" d="M170.2,51.4c0,0.4,0.1,0.7,0.1,1c0,0.3,0,0.5,0.1,0.8s0,0.4,0,0.5c-0.1,0.3-0.2,0.5-0.3,0.6
			s-0.4,0.2-0.6,0.2c-0.4-0.1-0.7-0.2-0.9-0.4c-0.2-0.2-0.4-0.5-0.6-0.8c-0.1-0.2-0.2-0.4-0.2-0.6c0-0.2-0.1-0.4-0.1-0.5
			c0-0.2-0.1-0.3-0.1-0.5c-0.1-0.7-0.1-1.5-0.2-2.2s-0.1-1.4-0.2-2.2c-0.1-0.7-0.1-1.3-0.2-1.9c0-0.6-0.1-1.3-0.1-2
			c0-0.4,0-0.7,0-1.1c0-0.4,0-0.7,0-1.1c0-0.2,0-0.5,0-0.7c0-0.2,0-0.5,0-0.7c0-0.2,0-0.5,0-0.7s0-0.5,0-0.7c0-0.3,0.1-0.6,0.1-0.8
			c0.1-0.3,0.3-0.6,0.6-0.7c0.3-0.2,0.6-0.2,0.9,0c0.1,0.1,0.2,0.1,0.3,0.2s0.1,0.2,0.2,0.3c0.1,0.2,0.2,0.4,0.3,0.6
			c0.1,0.2,0.1,0.4,0.2,0.6c0.1,0.5,0.2,1.1,0.3,1.6c0,0.5,0.1,1,0.1,1.6c0,0.4,0,0.7,0,1c0,0.3,0,0.7,0,1h0c0,0.4,0,0.8,0,1.2
			c0,0.4,0,0.8,0,1.2l0.3,4.4c0,0.2,0,0.3,0,0.4S170.2,51.3,170.2,51.4z M168.6,35.2c-0.1,0-0.2,0.1-0.3,0.1c-0.1,0-0.2,0-0.3,0
			c-0.1,0-0.2-0.1-0.3-0.2c-0.1-0.1-0.2-0.3-0.2-0.5s0-0.4,0-0.6c0.1-0.2,0.1-0.3,0.2-0.4c0.1-0.1,0.2-0.2,0.4-0.3c0,0,0.1,0,0.3,0
			c0.1,0.1,0.3,0.1,0.4,0.2c0.2,0.1,0.3,0.2,0.4,0.5c0.1,0.2,0.2,0.5,0.2,0.7c0,0.1,0,0.2-0.1,0.2c-0.1,0.1-0.1,0.1-0.2,0.2
			c-0.1,0.1-0.2,0.1-0.3,0.1S168.7,35.2,168.6,35.2z"/>
		<path fill="#F27024" d="M172.8,45.6c0.3,0.3,0.6,0.6,0.9,0.9c0.3,0.3,0.4,0.7,0.5,1.2c0.1,0.4,0.2,0.8,0.3,1.2s0.3,0.7,0.5,1.1
			c0.2,0.2,0.3,0.4,0.5,0.6c0.2,0.2,0.3,0.3,0.5,0.5c0.2,0.1,0.3,0.2,0.5,0.2c0.2,0,0.4,0,0.6,0c0.2,0,0.3-0.1,0.4-0.2
			c0.2-0.2,0.3-0.3,0.5-0.5c0.1-0.2,0.2-0.4,0.3-0.6c0.2-0.7,0.3-1.3,0.3-2c0-0.7-0.1-1.3-0.2-2c-0.1-0.4-0.3-0.8-0.5-1.2
			c-0.2-0.4-0.4-0.7-0.6-1.1c-0.3-0.4-0.6-0.8-0.8-1.1c-0.3-0.4-0.5-0.8-0.8-1.2c-0.3-0.5-0.6-1-0.8-1.5c-0.2-0.5-0.4-1-0.6-1.6
			c-0.1-0.4-0.1-0.8-0.1-1.3c0-0.4,0.1-0.8,0.3-1.3c0.1-0.4,0.3-0.8,0.6-1.1s0.6-0.6,0.9-0.9c0.1-0.1,0.2-0.1,0.3-0.2
			c0.1-0.1,0.2-0.1,0.3-0.2c0.3-0.2,0.7-0.3,1-0.4c0.4,0,0.7,0,1.1,0c0.4,0.1,0.7,0.2,1,0.4c0.3,0.2,0.6,0.4,0.8,0.6
			c0.5,0.5,0.9,1,1.4,1.6c0.2,0.2,0.3,0.4,0.4,0.7c0.1,0.2,0.2,0.5,0.3,0.7c0.1,0.2,0.1,0.3,0.2,0.4c0.1,0.1,0.1,0.3,0.2,0.4
			c0.1,0.2,0.1,0.4-0.1,0.6c0,0.1-0.1,0.1-0.1,0.2c-0.1,0-0.1,0-0.2,0c-0.2,0-0.3-0.1-0.3-0.3c0-0.1-0.1-0.2-0.1-0.4
			c0-0.1-0.1-0.2-0.1-0.4c-0.2-0.4-0.4-0.9-0.7-1.2s-0.6-0.7-1-1c-0.2-0.1-0.4-0.2-0.6-0.3c-0.2-0.1-0.4-0.1-0.6-0.2
			c-0.1,0-0.2,0-0.4,0c-0.1,0-0.2,0.1-0.3,0.2c-0.3,0.3-0.5,0.6-0.6,1s-0.3,0.7-0.3,1.1c0,0.2,0,0.4,0.1,0.6
			c0.1,0.2,0.1,0.3,0.2,0.5c0.3,0.6,0.6,1.1,0.9,1.6c0.3,0.5,0.7,1,1,1.5c0.3,0.4,0.5,0.8,0.8,1.1c0.2,0.4,0.5,0.8,0.7,1.2
			c0.6,1.1,0.9,2.3,1,3.6c0,0.7,0,1.3-0.1,1.9s-0.2,1.3-0.4,1.9c-0.2,0.7-0.5,1.4-0.9,1.9c-0.4,0.5-1,1-1.7,1.3
			c-0.3,0.1-0.6,0.2-0.9,0.2s-0.6,0-0.9,0c-1-0.1-1.9-0.4-2.7-0.9c-0.3-0.2-0.6-0.5-0.8-0.7c-0.3-0.3-0.5-0.5-0.7-0.8
			c-0.6-0.7-1-1.6-1.2-2.5c-0.1-0.4-0.1-0.7-0.1-1.1c0-0.4,0.1-0.7,0.2-1.1c0.1-0.3,0.2-0.6,0.3-0.9
			C172.6,46.2,172.7,45.9,172.8,45.6z"/>
		<path fill="#F27024" d="M199.1,54.5c-0.2,0-0.3,0-0.5-0.1c-0.1,0-0.3-0.1-0.4-0.2c-0.1-0.1-0.3-0.2-0.4-0.4
			c-0.4-0.6-0.7-1.2-1-1.9c-0.2-0.7-0.4-1.4-0.6-2.1c-0.1-0.4-0.2-0.9-0.2-1.3c-0.1-0.4-0.1-0.9-0.2-1.3c-0.1-0.7-0.1-1.3-0.2-2
			c-0.1-0.6-0.1-1.3-0.2-2c0-0.2,0-0.4,0-0.5c0-0.2,0-0.4-0.1-0.6c-0.1,0.2-0.2,0.3-0.3,0.4c-0.1,0.1-0.2,0.3-0.2,0.4
			c-0.2,0.7-0.5,1.3-0.9,1.9c-0.3,0.6-0.7,1.3-1,1.9c-0.2,0.3-0.3,0.5-0.4,0.8c-0.1,0.3-0.2,0.5-0.4,0.8c-0.1,0.2-0.2,0.4-0.4,0.6
			c-0.1,0.2-0.2,0.3-0.4,0.5c-0.3,0.4-0.6,0.7-1,1c-0.3,0.3-0.7,0.6-1.2,0.8c-0.7,0.4-1.4,0.5-2.2,0.4c-0.4,0-0.7-0.1-0.9-0.3
			c-0.3-0.2-0.5-0.4-0.7-0.7c-0.2-0.3-0.4-0.6-0.5-0.9c-0.1-0.3-0.2-0.7-0.2-1c-0.1-0.7-0.1-1.3-0.1-2c0.1-0.7,0.2-1.3,0.3-2
			c0.1-0.5,0.2-1,0.4-1.4c0.1-0.5,0.3-0.9,0.6-1.4c0.5-1,1.2-2,2.1-2.8c0.5-0.5,1.1-1,1.6-1.4s1.2-0.8,1.9-1.1
			c0.7-0.3,1.3-0.6,2-0.8s1.4-0.4,2.1-0.5c0,0,0.1,0,0.1,0c0,0,0.1,0,0.1,0c0.1-0.3,0.2-0.7,0.3-1c0.1-0.3,0.2-0.6,0.3-0.9
			c0-0.2,0.1-0.3,0.3-0.3c0.1-0.1,0.3-0.1,0.5-0.1c0.3,0,0.6,0.2,0.8,0.4c0.2,0.3,0.3,0.5,0.3,0.7c0.1,0.3,0.1,0.6,0.1,1
			c0,0.3,0,0.7-0.1,1c0,0.8-0.1,1.6-0.1,2.4c0,0.8,0,1.6,0.1,2.4c0.1,1,0.2,2,0.4,3s0.3,2,0.6,3c0.1,0.6,0.3,1.2,0.4,1.8
			c0.2,0.6,0.3,1.2,0.5,1.8c0.1,0.3,0.2,0.7,0.3,1c0.1,0.3,0.2,0.6,0.3,1c0,0.1,0,0.2,0.1,0.3c0,0.2,0,0.3-0.1,0.5
			c-0.1,0.1-0.2,0.2-0.3,0.4c-0.1,0.1-0.2,0.2-0.4,0.3c-0.1,0.1-0.3,0.1-0.4,0.2C199.4,54.4,199.3,54.5,199.1,54.5z M189.1,49.4h0.1
			c0.1,0,0.1-0.1,0.2-0.1c0.8-0.5,1.4-1.1,1.8-1.9c0.1-0.2,0.2-0.5,0.3-0.7c0.1-0.2,0.2-0.5,0.3-0.7c0.2-0.4,0.5-0.9,0.8-1.3
			c0.3-0.4,0.5-0.9,0.7-1.4c0.1-0.4,0.3-0.7,0.5-1.1c0.2-0.4,0.3-0.7,0.5-1.1c0.2-0.5,0.4-0.9,0.6-1.4c0.2-0.5,0.4-0.9,0.5-1.4
			c0-0.2,0.1-0.3,0.1-0.5c0-0.2,0-0.3,0-0.5c-0.2,0-0.3,0.1-0.4,0.1c-0.1,0-0.3,0.1-0.4,0.2c-0.5,0.2-1,0.5-1.5,0.8
			c-0.5,0.3-0.9,0.6-1.4,0.9c-0.4,0.3-0.7,0.6-1,0.9c-0.3,0.3-0.6,0.6-0.8,1.1c-0.1,0.2-0.2,0.4-0.3,0.5c-0.1,0.2-0.2,0.3-0.2,0.5
			c-0.1,0.3-0.2,0.6-0.3,0.9c-0.1,0.3-0.2,0.6-0.3,0.9c-0.1,0.3-0.1,0.5-0.1,0.8c0,0.3-0.1,0.5-0.1,0.8c-0.1,0.5-0.1,0.9-0.1,1.4
			c0,0.5,0.1,0.9,0.1,1.4c0,0.2,0.1,0.3,0.1,0.5C189,49.1,189,49.3,189.1,49.4z"/>
		<path fill="#F27024" d="M212.9,45.7c0.1-0.2,0.2-0.3,0.3-0.3c0.1-0.1,0.3-0.1,0.4-0.1c0.2,0,0.3,0,0.4,0c0.1,0.1,0.2,0.1,0.2,0.2
			c0,0.1,0,0.2,0,0.3c0,0.3,0,0.7,0,1c0,0.3,0,0.7,0,1.1c0,0.6,0.1,1.2,0.3,1.7s0.5,1,0.9,1.5c0.2,0.3,0.6,0.5,1,0.6
			c0.8,0.3,1.5,0.3,2.2,0.2c0.7-0.1,1.4-0.4,2-0.9c0.2-0.1,0.3-0.2,0.4-0.3c0.1-0.1,0.3-0.2,0.4-0.4c0.3-0.3,0.5-0.7,0.7-1.1
			c0.1-0.4,0.2-0.8,0.2-1.3c0-0.8,0-1.5-0.1-2.3c-0.1-0.7-0.3-1.5-0.6-2.2c-0.2-0.4-0.4-0.9-0.6-1.3c-0.2-0.4-0.5-0.8-0.8-1.2
			c-0.2-0.2-0.3-0.4-0.5-0.6c-0.2-0.2-0.4-0.3-0.6-0.5c-0.4-0.4-0.9-0.7-1.4-1.1s-1-0.6-1.5-0.9c-0.4-0.2-0.7-0.4-1.1-0.6
			s-0.7-0.5-1-0.8c-0.3-0.3-0.6-0.7-0.9-1c-0.3-0.3-0.5-0.7-0.7-1.2c-0.3-0.7-0.4-1.4-0.4-2.1c0-0.5,0.1-0.9,0.2-1.4
			c0.1-0.4,0.3-0.9,0.6-1.3c0.8-1.3,2-2.2,3.5-2.7c0.7-0.2,1.5-0.3,2.3-0.2c0.2,0,0.4,0.1,0.7,0.1c0.2,0,0.4,0.1,0.7,0.1
			c0.5,0.1,1,0.3,1.5,0.6c0.5,0.3,0.9,0.6,1.3,1c0.2,0.2,0.3,0.3,0.4,0.5c0.1,0.2,0.2,0.3,0.4,0.5c0.1,0.1,0.2,0.2,0.3,0.3
			c0.1,0.1,0.2,0.2,0.3,0.3c0.2,0.2,0.3,0.5,0.5,0.7c0.2,0.2,0.3,0.5,0.4,0.7c0.1,0.2,0.1,0.3,0.1,0.4c0,0.1-0.1,0.2-0.2,0.3
			c-0.3,0.2-0.6,0.3-0.9,0.1c-0.2-0.1-0.4-0.3-0.5-0.4c-0.2-0.1-0.3-0.3-0.5-0.4c-0.3-0.2-0.6-0.4-0.9-0.6c-0.3-0.2-0.7-0.3-1-0.3
			c-0.6-0.1-1.1-0.1-1.6,0c-0.5,0.1-1,0.3-1.5,0.7c-0.7,0.5-0.9,1.1-0.7,1.7c0.1,0.2,0.2,0.4,0.4,0.6c0.2,0.1,0.3,0.3,0.5,0.4
			c0.3,0.2,0.6,0.4,1,0.5c0.3,0.2,0.6,0.3,1,0.5c1,0.6,1.8,1.3,2.6,2.1c0.3,0.3,0.5,0.6,0.8,1c0.2,0.3,0.5,0.7,0.7,1
			c0.2,0.4,0.5,0.9,0.7,1.3c0.2,0.4,0.4,0.9,0.6,1.4c0.1,0.4,0.3,0.9,0.4,1.3c0.1,0.4,0.2,0.9,0.3,1.3c0.2,1.4,0.1,2.7-0.1,4
			c-0.1,0.7-0.4,1.4-0.7,2c-0.3,0.6-0.7,1.2-1.1,1.8c-0.1,0.1-0.2,0.2-0.3,0.4c-0.6,0.4-1.1,0.8-1.7,1.1c-0.6,0.3-1.3,0.6-2,0.7
			c-1,0.2-1.9,0.2-2.7,0c-0.8-0.2-1.6-0.6-2.4-1.2c-0.2-0.2-0.4-0.3-0.6-0.5c-0.2-0.2-0.4-0.4-0.6-0.6c-0.3-0.3-0.5-0.7-0.7-1.1
			c-0.2-0.4-0.3-0.8-0.4-1.2c-0.3-0.7-0.4-1.4-0.4-2.1c0-0.3,0-0.6,0.1-0.9c0-0.3,0.1-0.6,0.1-0.9C212.8,45.8,212.8,45.8,212.9,45.7
			z"/>
		<path fill="#F27024" d="M231,52.9c0,0.2,0,0.5-0.1,0.6c0,0.2-0.1,0.3-0.2,0.4c-0.1,0.1-0.2,0.2-0.4,0.3s-0.3,0.1-0.6,0.2
			c-0.4,0.1-0.8,0.2-1.1,0.1c-0.4,0-0.7-0.2-1-0.5c-0.1-0.1-0.2-0.3-0.2-0.5c0-0.2,0-0.3,0.1-0.5c0.1-0.1,0.2-0.2,0.3-0.3
			c0.1-0.1,0.2-0.2,0.3-0.3c0.1-0.1,0.1-0.2,0.2-0.2c0.1-0.1,0.2-0.1,0.3-0.2c0.2-0.2,0.5-0.3,0.8-0.3c0.2-0.1,0.4,0,0.6,0
			c0.2,0.1,0.4,0.2,0.6,0.3c0.2,0.1,0.3,0.2,0.4,0.4C231,52.5,231,52.7,231,52.9z"/>
		<path fill="#F27024" d="M246.8,52.3c0.2,0,0.5,0,0.7-0.1s0.4-0.2,0.6-0.3c0.3-0.2,0.6-0.3,0.9-0.5c0.3-0.2,0.5-0.4,0.8-0.6
			c0.8-0.7,1.7-1.3,2.7-1.7c0.2-0.1,0.3-0.1,0.5-0.2s0.3-0.1,0.5-0.1c0.2,0,0.4,0.1,0.5,0.2c0.1,0.1,0.1,0.3,0.1,0.5
			c-0.1,0.2-0.1,0.3-0.2,0.5s-0.2,0.3-0.4,0.4c-0.6,0.4-1.2,0.8-1.7,1.2c-0.6,0.4-1.1,0.8-1.7,1.2c-0.5,0.3-1,0.6-1.4,0.9
			s-1,0.5-1.6,0.6c-0.2,0.1-0.5,0.1-0.7,0.1c-0.2,0-0.5,0.1-0.7,0.1c-0.3,0-0.5,0-0.8-0.1s-0.5-0.1-0.8-0.3c-0.1,0-0.1-0.1-0.2-0.1
			c0,0-0.1-0.1-0.1-0.1c-0.1-0.2-0.2-0.4-0.3-0.6s-0.2-0.4-0.2-0.6c-0.2-1-0.4-2-0.5-3c-0.1-1-0.2-2-0.2-3c-0.1-1-0.1-1.9-0.2-2.8
			c-0.1-0.9-0.2-1.9-0.3-2.8c-0.1-0.7-0.2-1.3-0.2-2c-0.1-0.7-0.1-1.3-0.2-2c-0.1-0.9-0.1-1.8-0.1-2.7c0-0.9-0.1-1.8-0.1-2.7
			c0-0.5,0-1,0-1.5c0-0.5,0.1-1,0.1-1.5c0-0.3,0.1-0.6,0.2-0.8s0.2-0.5,0.3-0.8c0.1-0.1,0.1-0.2,0.3-0.2s0.2,0,0.4,0
			c0.4,0,0.8,0.1,1.1,0.4c0.3,0.3,0.5,0.6,0.7,1c0.1,0.3,0.2,0.7,0.3,1c0.1,0.3,0.1,0.7,0.2,1c0,0.2,0.1,0.4,0.1,0.6
			c0,0.2,0,0.4,0.1,0.6c0,0.4,0,0.8,0.1,1.1c0,0.4,0,0.8,0,1.2c0,0.4,0,0.7,0,1.1c0,0.4,0,0.7,0,1.1c0,0.1,0,0.2,0,0.2
			c0,0.1,0,0.2,0,0.2c0.1,0.3,0.1,0.6,0.1,0.8c0,0.3,0,0.5,0,0.8c0,0.2,0.1,0.5,0.1,0.7c0,0.2,0,0.5,0.1,0.7c0,0.1,0,0.3,0,0.4
			c0,0.1,0,0.3,0,0.4c0,0.4,0.1,0.9,0.1,1.3c0,0.4,0.1,0.9,0.2,1.3c0.1,0.2,0.1,0.5,0.1,0.7s0,0.5,0.1,0.7c0,0.3,0.1,0.5,0.1,0.8
			c0,0.3,0.1,0.5,0.1,0.8c0.1,0.4,0.1,0.8,0.2,1.2c0.1,0.4,0.1,0.8,0.1,1.2c0,0.6,0.1,1.2,0.2,1.7c0.1,0.6,0.1,1.1,0.2,1.7
			c0,0.1,0,0.2,0.1,0.3C246.8,52.1,246.8,52.2,246.8,52.3z"/>
		<path fill="#F27024" d="M268.8,43.9c0,0.7,0,1.3-0.1,1.8c0,0.5-0.1,1-0.2,1.5c-0.1,0.4-0.2,0.8-0.4,1.2s-0.3,0.8-0.5,1.2
			c-0.2,0.4-0.4,0.7-0.6,1.1s-0.4,0.7-0.6,1.1c-0.2,0.4-0.5,0.7-0.8,1c-0.3,0.3-0.6,0.5-1,0.8c0,0-0.1,0-0.1,0.1c0,0,0,0-0.1,0.1
			c-0.4,0.4-0.9,0.6-1.5,0.7c-0.5,0.1-1.1,0.2-1.6,0.2c-0.2,0-0.5,0-0.7-0.1c-0.2,0-0.5-0.1-0.7-0.1c-1.2-0.2-2.2-0.7-2.9-1.4
			c-0.8-0.7-1.4-1.6-1.8-2.6c-0.4-0.9-0.7-1.9-0.8-2.8c-0.1-1-0.1-2,0-3c0.1-0.7,0.2-1.5,0.3-2.2c0.2-0.7,0.4-1.4,0.6-2.1
			c0.4-1.1,0.8-2,1.4-2.9c0.6-0.9,1.3-1.7,2.1-2.5c1.1-1,2.5-1.5,4-1.6c0.7,0,1.3,0.1,1.9,0.4c0.6,0.3,1.1,0.7,1.5,1.2
			c0.5,0.6,0.9,1.3,1.2,2c0.3,0.7,0.5,1.4,0.7,2.2c0.1,0.5,0.2,0.9,0.3,1.4s0.1,0.9,0.2,1.4c0.1,0.4,0.1,0.8,0.2,1.2
			C268.8,43.3,268.8,43.6,268.8,43.9z M258.9,45.9c0,0.5,0.1,1.1,0.3,1.7c0.2,0.7,0.5,1.3,0.9,1.9c0.4,0.7,1,1.2,1.6,1.5
			c0.6,0.3,1.4,0.4,2.2,0.4c0.2,0,0.4-0.1,0.6-0.1c0.2-0.1,0.4-0.1,0.5-0.2c0.4-0.2,0.6-0.4,0.8-0.7c0.2-0.3,0.4-0.7,0.6-1
			c0.3-0.6,0.5-1.2,0.6-1.7s0.2-1.2,0.2-1.8c0.1-0.5,0.1-1,0.1-1.6s-0.1-1-0.2-1.5c-0.1-0.4-0.1-0.7-0.2-1.1
			c-0.1-0.4-0.1-0.7-0.2-1.1c-0.1-0.5-0.2-1-0.4-1.5c-0.2-0.5-0.4-1-0.7-1.4c-0.2-0.4-0.5-0.8-0.9-1.1c-0.3-0.3-0.7-0.6-1.2-0.8
			c-0.4-0.2-0.7-0.2-1-0.1c-0.3,0.1-0.5,0.3-0.8,0.6c-0.7,1-1.3,2-1.8,3.2c-0.4,1-0.6,2-0.8,3C259,43.5,258.9,44.6,258.9,45.9z"/>
		<path fill="#F27024" d="M282.7,37.1h-1.8c-0.2,0-0.4,0-0.6,0c-0.2,0-0.4,0-0.6,0c-0.8,0-1.6-0.1-2.4-0.1c-0.8,0-1.6-0.1-2.5-0.2
			c-0.4,0-0.9-0.1-1.3-0.1c-0.5-0.1-0.9-0.1-1.3-0.2c-0.4-0.1-0.8-0.2-1-0.5s-0.4-0.6-0.5-1c-0.1-0.2-0.1-0.3,0-0.4
			c0-0.1,0.1-0.1,0.3-0.2c0.3-0.1,0.5-0.2,0.8-0.3s0.5-0.1,0.8-0.1c0.7-0.1,1.4-0.1,2.1-0.2c0.7-0.1,1.4-0.2,2.1-0.2
			c0.2,0,0.4,0,0.6-0.1c0.2,0,0.4,0,0.6,0c0.9,0,1.8-0.1,2.7-0.1c0.9,0,1.8-0.1,2.7-0.1c0.4,0,0.9,0,1.3,0c0.4,0,0.9,0,1.3,0
			c0.2,0,0.4,0,0.6,0.1c0.2,0,0.4,0.1,0.6,0.1c0.3,0.1,0.5,0.1,0.8,0.2c0.3,0.1,0.5,0.2,0.8,0.3c0.1,0,0.2,0.1,0.3,0.2
			c0.1,0.1,0.2,0.2,0.3,0.3c0.1,0.1,0.2,0.2,0.2,0.4c0.1,0.1,0.1,0.2,0.1,0.3c0,0.2-0.1,0.4-0.2,0.5c-0.3,0.2-0.5,0.3-0.7,0.6
			c-0.2,0.2-0.4,0.5-0.6,0.7c-0.3,0.3-0.6,0.7-0.8,1c-0.3,0.3-0.6,0.7-0.9,1c-0.4,0.4-0.8,0.9-1.2,1.3c-0.4,0.4-0.8,0.8-1.3,1.2
			c-0.1,0.1-0.1,0.1-0.2,0.2c-0.1,0.1-0.1,0.1-0.2,0.2c0.7,0.1,1.4,0.2,2.1,0.3c0.7,0.1,1.3,0.3,2,0.6c0.1,0.1,0,0.2-0.1,0.3
			c-0.1,0.1-0.2,0.1-0.4,0.2s-0.2,0.1-0.4,0.1c-0.6,0.2-1.2,0.3-1.8,0.3c-0.6,0-1.2,0.1-1.8,0.1c-0.1,0-0.3,0-0.4,0.1s-0.3,0-0.4,0
			c-0.3,0-0.5,0-0.7,0.1c-0.2,0.1-0.4,0.3-0.6,0.4c-0.6,0.6-1.2,1.3-1.8,1.9c-0.6,0.6-1.2,1.3-1.8,1.9c-0.6,0.6-1.1,1.3-1.6,1.9
			c-0.5,0.6-1,1.3-1.5,1.9c-0.1,0.1-0.1,0.1-0.2,0.2c0,0.1-0.1,0.2-0.2,0.3c0.2,0,0.2,0,0.3,0c0.8-0.3,1.6-0.6,2.4-0.8
			c0.8-0.3,1.6-0.5,2.5-0.7c0.5-0.1,0.9-0.2,1.4-0.4s0.9-0.3,1.4-0.4c0.6-0.2,1.2-0.3,1.8-0.4s1.2-0.2,1.8-0.2c0.3,0,0.6,0,1,0
			c0.3,0,0.6,0.1,1,0.1c0,0,0.1,0,0.1,0c0,0,0.1,0,0.1,0c0.1,0,0.2,0.1,0.3,0.1c0.1,0,0.1,0.1,0.2,0.1c0,0.1,0.1,0.1,0.1,0.2
			s0,0.2,0,0.4c-0.2,0.2-0.4,0.3-0.5,0.5c-0.1,0.1-0.3,0.2-0.4,0.3c-0.2,0.1-0.3,0.2-0.5,0.2c-0.2,0.1-0.3,0.1-0.5,0.1
			c-0.2,0-0.4,0-0.5,0.1c-0.5,0-0.9,0.1-1.4,0.2c-0.5,0.1-0.9,0.2-1.4,0.3c-0.9,0.2-1.9,0.5-2.8,0.7s-1.8,0.5-2.8,0.7
			c-0.2,0.1-0.4,0.1-0.6,0.2c-0.2,0.1-0.4,0.1-0.6,0.2c-0.6,0.2-1.2,0.3-1.8,0.5c-0.6,0.1-1.2,0.2-1.9,0.2c-0.2,0-0.4,0-0.6,0
			s-0.4,0-0.6,0c-0.2,0-0.4-0.1-0.5-0.2c-0.2-0.1-0.3-0.2-0.5-0.2c-0.2-0.1-0.4-0.3-0.4-0.4c-0.1-0.2-0.1-0.4-0.1-0.6
			c0-0.4,0-0.8,0.2-1.2c0.1-0.4,0.3-0.7,0.5-1.1c0.4-0.8,0.8-1.5,1.3-2.2c0.5-0.7,1-1.4,1.6-2c0.3-0.4,0.6-0.7,0.9-1
			c0.3-0.3,0.6-0.7,0.9-1c0-0.1,0.1-0.1,0.1-0.2c0-0.1,0.1-0.1,0.2-0.2c-0.2,0-0.5,0-0.7,0c-0.2,0-0.5,0-0.7,0c-0.2,0-0.3,0-0.4,0
			s-0.3,0-0.4,0c-0.1,0-0.2,0-0.3,0s-0.2,0-0.3,0c-0.2,0-0.4-0.1-0.5-0.3c0-0.1,0-0.2,0-0.3c0.1-0.1,0.1-0.1,0.2-0.1
			c0.3-0.1,0.6-0.2,0.9-0.3c0.2-0.1,0.3-0.1,0.4-0.1c0.1,0,0.3-0.1,0.4-0.1c0.2-0.1,0.4-0.1,0.6-0.2c0.2,0,0.4-0.1,0.6-0.1
			c0.2,0,0.4-0.1,0.6-0.1c0.2,0,0.4-0.1,0.6-0.1c0.3,0,0.6-0.1,0.9-0.2c0.3-0.1,0.5-0.3,0.8-0.5c0.8-0.7,1.6-1.4,2.3-2.1
			c0.8-0.7,1.6-1.4,2.3-2.1c0,0,0.1-0.1,0.1-0.1c0,0,0.1-0.1,0.1-0.1C282.8,37.2,282.7,37.2,282.7,37.1
			C282.7,37.2,282.7,37.2,282.7,37.1z"/>
		<path fill="#F27024" d="M305.7,54.5c-0.2,0-0.3,0-0.5-0.1c-0.1,0-0.3-0.1-0.4-0.2s-0.3-0.2-0.4-0.4c-0.4-0.6-0.7-1.2-1-1.9
			c-0.2-0.7-0.4-1.4-0.6-2.1c-0.1-0.4-0.2-0.9-0.2-1.3c-0.1-0.4-0.1-0.9-0.2-1.3c-0.1-0.7-0.1-1.3-0.2-2c-0.1-0.6-0.1-1.3-0.2-2
			c0-0.2,0-0.4,0-0.5c0-0.2,0-0.4-0.1-0.6c-0.1,0.2-0.2,0.3-0.3,0.4c-0.1,0.1-0.2,0.3-0.2,0.4c-0.2,0.7-0.5,1.3-0.9,1.9
			c-0.3,0.6-0.7,1.3-1,1.9c-0.2,0.3-0.3,0.5-0.4,0.8c-0.1,0.3-0.2,0.5-0.4,0.8c-0.1,0.2-0.2,0.4-0.4,0.6c-0.1,0.2-0.2,0.3-0.4,0.5
			c-0.3,0.4-0.6,0.7-1,1c-0.3,0.3-0.7,0.6-1.2,0.8c-0.7,0.4-1.4,0.5-2.2,0.4c-0.4,0-0.7-0.1-0.9-0.3c-0.3-0.2-0.5-0.4-0.7-0.7
			c-0.2-0.3-0.4-0.6-0.5-0.9c-0.1-0.3-0.2-0.7-0.2-1c-0.1-0.7-0.1-1.3-0.1-2c0.1-0.7,0.2-1.3,0.3-2c0.1-0.5,0.2-1,0.4-1.4
			c0.1-0.5,0.3-0.9,0.6-1.4c0.5-1,1.2-2,2.1-2.8c0.5-0.5,1.1-1,1.6-1.4s1.2-0.8,1.9-1.1c0.7-0.3,1.3-0.6,2-0.8s1.4-0.4,2.1-0.5
			c0,0,0.1,0,0.1,0c0,0,0.1,0,0.1,0c0.1-0.3,0.2-0.7,0.3-1c0.1-0.3,0.2-0.6,0.3-0.9c0-0.2,0.1-0.3,0.3-0.3c0.1-0.1,0.3-0.1,0.5-0.1
			c0.3,0,0.6,0.2,0.8,0.4c0.2,0.3,0.3,0.5,0.3,0.7c0.1,0.3,0.1,0.6,0.1,1c0,0.3,0,0.7-0.1,1c0,0.8-0.1,1.6-0.1,2.4
			c0,0.8,0,1.6,0.1,2.4c0.1,1,0.2,2,0.4,3c0.2,1,0.3,2,0.6,3c0.1,0.6,0.3,1.2,0.4,1.8c0.2,0.6,0.3,1.2,0.5,1.8
			c0.1,0.3,0.2,0.7,0.3,1c0.1,0.3,0.2,0.6,0.3,1c0,0.1,0,0.2,0.1,0.3c0,0.2,0,0.3-0.1,0.5s-0.2,0.2-0.3,0.4
			c-0.1,0.1-0.2,0.2-0.4,0.3s-0.3,0.1-0.4,0.2C306,54.4,305.9,54.5,305.7,54.5z M295.7,49.4h0.1c0.1,0,0.1-0.1,0.2-0.1
			c0.8-0.5,1.4-1.1,1.8-1.9c0.1-0.2,0.2-0.5,0.3-0.7c0.1-0.2,0.2-0.5,0.3-0.7c0.2-0.4,0.5-0.9,0.8-1.3s0.5-0.9,0.7-1.4
			c0.1-0.4,0.3-0.7,0.5-1.1c0.2-0.4,0.3-0.7,0.5-1.1c0.2-0.5,0.4-0.9,0.6-1.4c0.2-0.5,0.4-0.9,0.5-1.4c0-0.2,0.1-0.3,0.1-0.5
			c0-0.2,0-0.3,0-0.5c-0.2,0-0.3,0.1-0.4,0.1c-0.1,0-0.3,0.1-0.4,0.2c-0.5,0.2-1,0.5-1.5,0.8s-0.9,0.6-1.4,0.9
			c-0.4,0.3-0.7,0.6-1,0.9c-0.3,0.3-0.6,0.6-0.8,1.1c-0.1,0.2-0.2,0.4-0.3,0.5c-0.1,0.2-0.2,0.3-0.2,0.5c-0.1,0.3-0.2,0.6-0.3,0.9
			c-0.1,0.3-0.2,0.6-0.3,0.9c-0.1,0.3-0.1,0.5-0.1,0.8c0,0.3-0.1,0.5-0.1,0.8c-0.1,0.5-0.1,0.9-0.1,1.4c0,0.5,0.1,0.9,0.1,1.4
			c0,0.2,0.1,0.3,0.1,0.5S295.6,49.3,295.7,49.4z"/>
		<path fill="#F27024" d="M312.8,47c0.1-0.3,0.2-0.6,0.2-0.8s0.2-0.6,0.2-0.8c0.1-0.5,0.2-0.9,0.4-1.4c0.1-0.5,0.3-0.9,0.5-1.3
			c0.2-0.5,0.4-1,0.6-1.5c0.2-0.5,0.4-1,0.7-1.5c0.2-0.4,0.4-0.9,0.7-1.3c0.2-0.4,0.5-0.8,0.7-1.2c0.2-0.3,0.4-0.7,0.6-1
			s0.4-0.6,0.6-1c0.1-0.2,0.3-0.4,0.5-0.6c0.2-0.2,0.3-0.4,0.5-0.6c0.1-0.1,0.2-0.2,0.3-0.3c0.1-0.1,0.2-0.2,0.3-0.3
			c0.2-0.2,0.4-0.3,0.7-0.3c0.2,0,0.3,0,0.4,0c0.1,0,0.3,0,0.4,0c0.2,0,0.3,0.1,0.4,0.2c0.1,0.1,0.2,0.2,0.3,0.3
			c0.1,0.1,0.2,0.3,0.3,0.4c0.1,0.2,0.1,0.3,0.2,0.5c0.2,0.7,0.2,1.4,0.3,2c0,0.7,0,1.4-0.1,2c0,0.6-0.1,1.2-0.1,1.7
			c0,0.6-0.1,1.2-0.1,1.7c-0.1,1-0.1,2-0.1,3c0,1,0,2,0,3c0,0.5,0.1,1,0.1,1.5c0,0.5,0.1,1,0.2,1.5c0,0.2,0.1,0.3,0.1,0.4
			c0,0.1,0,0.3,0.1,0.4c0,0.1,0,0.2,0.1,0.3c0,0.1,0,0.2-0.1,0.3c0,0,0,0,0,0c0,0,0,0,0,0c0,0.2,0,0.4-0.2,0.5
			c-0.1,0.1-0.3,0.2-0.5,0.3c-0.2,0.1-0.4,0.1-0.5,0.2c-0.2,0.1-0.3,0.1-0.5,0.2c-0.3,0.1-0.6,0.1-0.9,0c-0.3-0.1-0.6-0.3-0.7-0.5
			c0-0.1-0.1-0.1-0.1-0.2c0-0.1,0-0.1-0.1-0.2c0-0.1,0-0.1,0-0.2s0-0.1,0-0.2c-0.3-1.5-0.4-3-0.4-4.6c0-0.3,0-0.6,0-0.9
			c0-0.3,0-0.6,0-0.9c0-0.5,0.1-1,0.1-1.5c0-0.5,0.1-1,0.1-1.5c0-0.4,0.1-0.8,0.1-1.2c0-0.4,0.1-0.8,0.2-1.2c0-0.3,0.1-0.6,0.2-1
			c0.1-0.3,0.1-0.6,0.2-1c0.1-0.6,0.2-1.2,0.3-1.8c0.1-0.6,0.2-1.2,0.2-1.8c0-0.1,0-0.2,0-0.2c0-0.1,0-0.2,0-0.3
			c-0.4,0.3-0.8,0.7-1,1c-0.2,0.2-0.3,0.5-0.4,0.7c-0.1,0.2-0.3,0.5-0.4,0.7c-0.2,0.3-0.3,0.5-0.5,0.8c-0.2,0.3-0.3,0.5-0.5,0.8
			c-0.2,0.3-0.3,0.6-0.4,0.9c-0.2,0.4-0.4,0.8-0.6,1.2c-0.2,0.4-0.4,0.8-0.6,1.2c-0.1,0.2-0.2,0.4-0.2,0.6c-0.1,0.2-0.1,0.4-0.2,0.6
			c-0.2,0.5-0.4,1.1-0.5,1.6c-0.2,0.5-0.3,1.1-0.5,1.6c-0.1,0.3-0.2,0.6-0.2,0.8c-0.1,0.3-0.1,0.6-0.2,0.8c-0.1,0.4-0.2,0.8-0.2,1.2
			c0,0.4-0.1,0.8-0.1,1.3c0,0.2-0.1,0.4-0.1,0.6c0,0.2-0.1,0.4-0.1,0.6c0,0.2,0,0.4-0.1,0.5c0,0.2,0,0.3-0.1,0.5
			c-0.1,0.3-0.2,0.5-0.3,0.7c-0.1,0.1-0.1,0.2-0.2,0.2c-0.1,0.1-0.2,0.1-0.3,0.2c-0.1,0-0.2,0.1-0.3,0.1c-0.1,0-0.2,0-0.3,0
			c-0.1,0-0.2,0-0.3,0c-0.1,0-0.2-0.1-0.2-0.1c-0.3-0.3-0.5-0.7-0.7-1c-0.2-0.6-0.4-1.1-0.5-1.7c-0.1-0.6-0.2-1.1-0.3-1.7
			c-0.1-0.7-0.1-1.3-0.2-2c-0.1-0.7-0.1-1.3-0.2-2c0-0.8-0.1-1.6-0.1-2.4c0-0.8,0-1.6,0-2.4c0-0.6,0-1.2,0.1-1.9
			c0-0.6,0.1-1.3,0.1-1.9c0-0.8,0.1-1.6,0.2-2.5c0-0.2,0.1-0.5,0.1-0.7c0.1-0.2,0.2-0.5,0.3-0.7c0.2-0.2,0.3-0.3,0.6-0.4
			c0.2,0,0.4,0,0.5,0c0.2,0,0.3,0.2,0.4,0.4c0.1,0.2,0.2,0.4,0.3,0.6s0.1,0.4,0.2,0.6c0,0.3,0.1,0.5,0.1,0.8c0,0.3,0.1,0.5,0.1,0.8
			c0.1,0.4,0.1,0.8,0.2,1.1c0,0.4,0.1,0.8,0.1,1.2c0,0.6,0.1,1.2,0.1,1.7s0.1,1.1,0.1,1.7c0,0.6,0.1,1.2,0.1,1.9
			c0,0.6,0.1,1.2,0.1,1.9c0,0.2,0,0.4,0,0.6c0,0.2,0,0.4,0.1,0.6H312.8z"/>
		<path fill="#F27024" d="M338.3,43.9c0,0.7,0,1.3-0.1,1.8c0,0.5-0.1,1-0.2,1.5c-0.1,0.4-0.2,0.8-0.4,1.2s-0.3,0.8-0.5,1.2
			c-0.2,0.4-0.4,0.7-0.6,1.1s-0.4,0.7-0.6,1.1c-0.2,0.4-0.5,0.7-0.8,1c-0.3,0.3-0.6,0.5-1,0.8c0,0-0.1,0-0.1,0.1c0,0,0,0-0.1,0.1
			c-0.4,0.4-0.9,0.6-1.5,0.7c-0.5,0.1-1.1,0.2-1.6,0.2c-0.2,0-0.5,0-0.7-0.1c-0.2,0-0.5-0.1-0.7-0.1c-1.2-0.2-2.2-0.7-2.9-1.4
			c-0.8-0.7-1.4-1.6-1.8-2.6c-0.4-0.9-0.7-1.9-0.8-2.8c-0.1-1-0.1-2,0-3c0.1-0.7,0.2-1.5,0.3-2.2c0.2-0.7,0.4-1.4,0.6-2.1
			c0.4-1.1,0.8-2,1.4-2.9c0.6-0.9,1.3-1.7,2.1-2.5c1.1-1,2.5-1.5,4-1.6c0.7,0,1.3,0.1,1.9,0.4c0.6,0.3,1.1,0.7,1.5,1.2
			c0.5,0.6,0.9,1.3,1.2,2c0.3,0.7,0.5,1.4,0.7,2.2c0.1,0.5,0.2,0.9,0.3,1.4s0.1,0.9,0.2,1.4c0.1,0.4,0.1,0.8,0.2,1.2
			C338.3,43.3,338.3,43.6,338.3,43.9z M328.4,45.9c0,0.5,0.1,1.1,0.3,1.7c0.2,0.7,0.5,1.3,0.9,1.9c0.4,0.7,1,1.2,1.6,1.5
			c0.6,0.3,1.4,0.4,2.2,0.4c0.2,0,0.4-0.1,0.6-0.1c0.2-0.1,0.4-0.1,0.5-0.2c0.4-0.2,0.6-0.4,0.8-0.7c0.2-0.3,0.4-0.7,0.6-1
			c0.3-0.6,0.5-1.2,0.6-1.7s0.2-1.2,0.2-1.8c0.1-0.5,0.1-1,0.1-1.6s-0.1-1-0.2-1.5c-0.1-0.4-0.1-0.7-0.2-1.1
			c-0.1-0.4-0.1-0.7-0.2-1.1c-0.1-0.5-0.2-1-0.4-1.5c-0.2-0.5-0.4-1-0.7-1.4c-0.2-0.4-0.5-0.8-0.9-1.1c-0.3-0.3-0.7-0.6-1.2-0.8
			c-0.4-0.2-0.7-0.2-1-0.1c-0.3,0.1-0.5,0.3-0.8,0.6c-0.7,1-1.3,2-1.8,3.2c-0.4,1-0.6,2-0.8,3C328.5,43.5,328.4,44.6,328.4,45.9z"/>
	</g>
</g>
<g>
</g>
<g>
</g>
<g>
</g>
<g>
</g>
<g>
</g>
<g>
</g>
</svg>
