<?xml version="1.0" encoding="utf-8"?>
<!-- Generator: Adobe Illustrator 21.1.0, SVG Export Plug-In . SVG Version: 6.00 Build 0)  -->
<svg version="1.1" id="Layer_1" xmlns="http://www.w3.org/2000/svg" xmlns:xlink="http://www.w3.org/1999/xlink" x="0px" y="0px"
	 viewBox="0 0 197.9 133.8" style="enable-background:new 0 0 197.9 133.8;" xml:space="preserve">
<style type="text/css">
	.st0{fill:none;stroke:#FCC21D;stroke-width:2.3836;stroke-miterlimit:10;}
	.st1{fill:none;stroke:#FCC21D;stroke-width:2.3332;stroke-miterlimit:10;}
	.st2{fill:none;stroke:#FCC21D;stroke-width:1.1918;stroke-miterlimit:10;}
	.st3{fill:none;stroke:#FCC21D;stroke-width:2.0753;stroke-miterlimit:10;}
	.st4{fill:none;stroke:#FCC21D;stroke-width:2.4742;stroke-miterlimit:10;}
</style>
<g>
	<g>
		<ellipse class="st0" cx="17.5" cy="16.7" rx="12" ry="11.7"/>
		<path class="st0" d="M17.5,28.8c0,0-4.3,0-8.5,0.6c-4.1,0.5-7.6,2-7.6,2l8.1,38.1l8.1,38.1l8.1-38.1l6.7-32.3"/>
		<line class="st0" x1="17.5" y1="5" x2="17.5" y2="104.1"/>
		<line class="st0" x1="5.5" y1="16.7" x2="30.5" y2="16.7"/>
	</g>
	<ellipse transform="matrix(0.9818 -0.1897 0.1897 0.9818 -22.5134 5.9729)" class="st0" cx="19.9" cy="120.6" rx="12" ry="12"/>
	<line class="st0" x1="17.7" y1="108.7" x2="22.4" y2="132.8"/>
	<line class="st0" x1="8.4" y1="123" x2="32.9" y2="118.3"/>
	<g>
		<path class="st1" d="M60.1,50.2L65,35.5l5.5-17.1c0,0,1.4,0,2.7,0.5c2,0.6,3.8,1.7,3.8,1.7s1.8,1.1,3,2.3c1.2,1.2,1.8,2.9,1.8,2.9
			L67,42.6L60.1,50.2z"/>
		<line class="st1" x1="77.4" y1="20.4" x2="61.4" y2="48.1"/>
	</g>
	<g>
		<ellipse transform="matrix(0.9793 -0.2024 0.2024 0.9793 -0.6651 17.2268)" class="st0" cx="83.9" cy="11.9" rx="11" ry="10.7"/>
		<path class="st0" d="M74.9,34.7l11.6,25.6l14.2,32.3l0.2-35.3l0.2-35.3c0,0-2.9-0.6-5.8-0.6c-4.3,0-9,1.4-9,1.4"/>
		<polyline class="st0" points="81.8,1.5 86.2,22.8 100.2,90.3 		"/>
		<line class="st0" x1="73.2" y1="14.2" x2="95.5" y2="9.4"/>
	</g>
	<g>
		<ellipse transform="matrix(0.9693 -0.2457 0.2457 0.9693 -21.7259 28.3556)" class="st0" cx="102.8" cy="101.2" rx="9" ry="9"/>
		<line class="st0" x1="100.6" y1="92.6" x2="105.2" y2="110.4"/>
		<line class="st0" x1="94.1" y1="103.4" x2="112.1" y2="98.8"/>
	</g>
	<g>
		<ellipse transform="matrix(0.6828 -0.7306 0.7306 0.6828 -23.119 58.7096)" class="st2" cx="56.1" cy="56" rx="3.3" ry="3.3"/>
		<line class="st2" x1="53.4" y1="53.7" x2="58.6" y2="58.5"/>
		<line class="st2" x1="53.6" y1="58.5" x2="58.5" y2="53.4"/>
	</g>
	<g>
		<path class="st0" d="M52.1,51.8L46,40.5L34,20.4c0,0-1.4,0.3-2.6,0.9c-1.8,0.9-3.3,2.6-3.3,2.6s-1.2,1.2-2.4,2.7
			c-1.1,1.4-2.3,3.5-2.3,3.5l18,13.4L52.1,51.8z"/>
		<line class="st0" x1="27.4" y1="23.4" x2="50.7" y2="50.2"/>
	</g>
	<path class="st2" d="M82.8,23.4"/>
	<path class="st2" d="M81.2,23.3"/>
	<line class="st0" x1="23" y1="28.3" x2="23.3" y2="28"/>
	<g>
		<g>
			<ellipse transform="matrix(0.1532 -0.9882 0.9882 0.1532 96.0418 151.9319)" class="st0" cx="136.7" cy="19.9" rx="12" ry="12"/>
			<path class="st0" d="M122.3,112.8l14-37.6l14-37.6c0,0-2.7-1.7-5.8-2.9c-4.4-1.7-9.9-2.3-9.9-2.3s-4.3-0.6-8.5-0.6
				c-4.1-0.2-7.9,0.9-7.9,0.9l2,40.2L122.3,112.8z"/>
			<line class="st0" x1="138.6" y1="8.1" x2="122.9" y2="109.3"/>
			<line class="st0" x1="124.7" y1="18.1" x2="149.4" y2="21.9"/>
		</g>
		<g>
			
				<ellipse transform="matrix(0.1255 -0.9921 0.9921 0.1255 -14.9658 226.8151)" class="st0" cx="121.2" cy="121.9" rx="9" ry="8.8"/>
			<line class="st0" x1="112.4" y1="120.9" x2="130" y2="123"/>
			<line class="st0" x1="120.1" y1="130.8" x2="122.4" y2="112.5"/>
		</g>
	</g>
	<g>
		<ellipse transform="matrix(0.7276 -0.686 0.686 0.7276 30.522 137.4789)" class="st3" cx="188.4" cy="30.3" rx="7.8" ry="8.1"/>
		<path class="st3" d="M144.3,71.7l22.1-13.4l22.1-13.4c0,0-0.8-2-1.8-3.8c-1.7-2.6-4.3-5.2-4.3-5.2s-2-2-4.3-3.8
			c-2.1-1.7-4.4-2.7-4.4-2.7L159,50.7L144.3,71.7z"/>
		<line class="st3" x1="194" y1="25" x2="146" y2="70.2"/>
		<line class="st3" x1="182.9" y1="24.4" x2="194.3" y2="36.5"/>
	</g>
	<g>
		<ellipse transform="matrix(0.6792 -0.734 0.734 0.6792 -10.1149 127.5937)" class="st2" cx="140.9" cy="75.4" rx="3.5" ry="3.5"/>
		<line class="st2" x1="138.3" y1="72.9" x2="143.4" y2="77.7"/>
		<line class="st2" x1="138.4" y1="78" x2="143.4" y2="72.5"/>
	</g>
	<g>
		
			<ellipse transform="matrix(0.6783 -0.7348 0.7348 0.6783 -27.1209 177.3358)" class="st3" cx="189" cy="119.6" rx="8.1" ry="7.8"/>
		<path class="st3" d="M144.5,78.7l14.9,21.2l14.9,21.2c0,0,2-0.9,3.7-2.1c2.6-1.8,4.9-4.6,4.9-4.6s1.8-2.1,3.5-4.4
			c1.5-2.3,2.4-4.6,2.4-4.6l-22.2-13.2L144.5,78.7z"/>
		<line class="st3" x1="194.7" y1="125" x2="146.2" y2="80.2"/>
		<line class="st3" x1="194.4" y1="113.7" x2="183.2" y2="126.1"/>
	</g>
	<path class="st0" d="M86.3,22.7c0,0-2.9,0.3-4.7,1.5"/>
	<path class="st4" d="M18,28.5c0,0,3.8,0.5,5.5,1.1"/>
</g>
</svg>
