<?xml version="1.0" encoding="utf-8"?>
<!-- Generator: Adobe Illustrator 21.1.0, SVG Export Plug-In . SVG Version: 6.00 Build 0)  -->
<svg version="1.1" id="Layer_1" xmlns="http://www.w3.org/2000/svg" xmlns:xlink="http://www.w3.org/1999/xlink" x="0px" y="0px"
	 viewBox="0 0 403.1 272.6" style="enable-background:new 0 0 403.1 272.6;" xml:space="preserve">
<style type="text/css">
	.st0{fill:none;stroke:#B74004;stroke-width:4.8557;stroke-miterlimit:10;}
	.st1{fill:none;stroke:#B74004;stroke-width:4.753;stroke-miterlimit:10;}
	.st2{fill:none;stroke:#B74004;stroke-width:2.4278;stroke-miterlimit:10;}
	.st3{fill:none;stroke:#B74004;stroke-width:4.2275;stroke-miterlimit:10;}
	.st4{fill:none;stroke:#B74004;stroke-width:5.0402;stroke-miterlimit:10;}
</style>
<g>
	<g>
		<ellipse class="st0" cx="35.7" cy="34.1" rx="24.5" ry="23.9"/>
		<path class="st0" d="M35.7,58.6c0,0-8.7,0-17.4,1.2c-8.4,0.9-15.5,4-15.5,4l16.4,77.5L35.7,219l16.4-77.5l13.6-65.8"/>
		<line class="st0" x1="35.7" y1="10.2" x2="35.7" y2="212.1"/>
		<line class="st0" x1="11.2" y1="34.1" x2="62" y2="34.1"/>
	</g>
	
		<ellipse transform="matrix(0.9818 -0.1897 0.1897 0.9818 -45.8621 12.1713)" class="st0" cx="40.6" cy="245.6" rx="24.5" ry="24.5"/>
	<line class="st0" x1="36" y1="221.4" x2="45.6" y2="270.5"/>
	<line class="st0" x1="17.1" y1="250.6" x2="67" y2="241"/>
	<g>
		<path class="st1" d="M122.5,102.3l9.9-30.1l11.2-34.7c0,0,2.8,0,5.6,0.9c4,1.2,7.8,3.4,7.8,3.4s3.7,2.2,6.2,4.7
			c2.5,2.5,3.7,5.9,3.7,5.9l-30.4,34.4L122.5,102.3z"/>
		<line class="st1" x1="157.6" y1="41.5" x2="125" y2="98"/>
	</g>
	<g>
		
			<ellipse transform="matrix(0.9793 -0.2024 0.2024 0.9793 -1.3549 35.0928)" class="st0" cx="170.9" cy="24.2" rx="22.3" ry="21.7"/>
		<path class="st0" d="M152.6,70.7l23.6,52.1l28.8,65.8l0.3-72l0.3-72c0,0-5.9-1.2-11.8-1.2c-8.7,0-18.3,2.8-18.3,2.8"/>
		<polyline class="st0" points="166.6,3.1 175.6,46.5 204.1,183.9 		"/>
		<line class="st0" x1="149.2" y1="28.8" x2="194.5" y2="19.2"/>
	</g>
	<g>
		
			<ellipse transform="matrix(0.9693 -0.2457 0.2457 0.9693 -44.2636 57.7669)" class="st0" cx="209.4" cy="206.3" rx="18.3" ry="18.3"/>
		<line class="st0" x1="205" y1="188.6" x2="214.3" y2="224.9"/>
		<line class="st0" x1="191.7" y1="210.6" x2="228.3" y2="201.3"/>
	</g>
	<g>
		
			<ellipse transform="matrix(0.6828 -0.7306 0.7306 0.6828 -47.1279 119.5444)" class="st2" cx="114.1" cy="114" rx="6.8" ry="6.8"/>
		<line class="st2" x1="108.9" y1="109.5" x2="119.4" y2="119.1"/>
		<line class="st2" x1="109.2" y1="119.1" x2="119.1" y2="108.8"/>
	</g>
	<g>
		<path class="st0" d="M106.1,105.4l-12.4-23L69.2,41.5c0,0-2.8,0.6-5.3,1.9c-3.7,1.9-6.8,5.3-6.8,5.3s-2.5,2.5-5,5.6
			c-2.2,2.8-4.7,7.1-4.7,7.1l36.6,27.3L106.1,105.4z"/>
		<line class="st0" x1="55.8" y1="47.7" x2="103.3" y2="102.3"/>
	</g>
	<path class="st2" d="M168.7,47.7"/>
	<path class="st2" d="M165.3,47.4"/>
	<line class="st0" x1="46.8" y1="57.7" x2="47.5" y2="57"/>
	<g>
		<g>
			
				<ellipse transform="matrix(0.1532 -0.9882 0.9882 0.1532 195.6843 309.3897)" class="st0" cx="278.4" cy="40.5" rx="24.5" ry="24.5"/>
			<path class="st0" d="M249.1,229.8l28.5-76.6l28.5-76.6c0,0-5.6-3.4-11.8-5.9c-9-3.4-20.2-4.7-20.2-4.7s-8.7-1.2-17.4-1.2
				c-8.4-0.3-16.1,1.9-16.1,1.9l4,81.9L249.1,229.8z"/>
			<line class="st0" x1="282.3" y1="16.4" x2="250.3" y2="222.7"/>
			<line class="st0" x1="254" y1="36.9" x2="304.3" y2="44.6"/>
		</g>
		<g>
			
				<ellipse transform="matrix(0.1255 -0.9921 0.9921 0.1255 -30.5863 462.1603)" class="st0" cx="246.9" cy="248.4" rx="18.3" ry="18"/>
			<line class="st0" x1="228.9" y1="246.3" x2="264.9" y2="250.6"/>
			<line class="st0" x1="244.7" y1="266.4" x2="249.4" y2="229.2"/>
		</g>
	</g>
	<g>
		
			<ellipse transform="matrix(0.7276 -0.686 0.686 0.7276 62.2272 280.0941)" class="st3" cx="383.8" cy="61.7" rx="15.8" ry="16.4"/>
		<path class="st3" d="M294.1,146.1l45-27.3l45-27.3c0,0-1.6-4-3.7-7.8c-3.4-5.3-8.7-10.5-8.7-10.5s-4-4-8.7-7.8
			c-4.3-3.4-9-5.6-9-5.6l-30.1,43.4L294.1,146.1z"/>
		<line class="st3" x1="395.2" y1="50.8" x2="297.5" y2="143"/>
		<line class="st3" x1="372.5" y1="49.6" x2="395.8" y2="74.4"/>
	</g>
	<g>
		<ellipse transform="matrix(0.6792 -0.734 0.734 0.6792 -20.5398 259.9021)" class="st2" cx="287" cy="153.4" rx="7.1" ry="7.1"/>
		<line class="st2" x1="281.6" y1="148.5" x2="292.2" y2="158.2"/>
		<line class="st2" x1="282" y1="158.8" x2="292.2" y2="147.6"/>
	</g>
	<g>
		
			<ellipse transform="matrix(0.6783 -0.7348 0.7348 0.6783 -55.3029 361.2545)" class="st3" cx="384.9" cy="243.8" rx="16.4" ry="15.8"/>
		<path class="st3" d="M294.4,160.3l30.4,43.1l30.4,43.1c0,0,4-1.9,7.4-4.3c5.3-3.7,9.9-9.3,9.9-9.3s3.7-4.3,7.1-9
			c3.1-4.7,5-9.3,5-9.3l-45.3-27L294.4,160.3z"/>
		<line class="st3" x1="396.7" y1="254.6" x2="297.8" y2="163.4"/>
		<line class="st3" x1="396.1" y1="231.7" x2="373.2" y2="256.8"/>
	</g>
	<path class="st0" d="M175.9,46.2c0,0-5.9,0.6-9.6,3.1"/>
	<path class="st4" d="M36.6,58c0,0,7.8,0.9,11.2,2.2"/>
</g>
</svg>
